<svg xmlns="http://www.w3.org/2000/svg" width="520.2571411132812" height="437.1726989746094" viewBox="-211.6600341796875 -171.60061645507812 520.2571411132812 437.1726989746094"><title>Neo4j Graph Visualization</title><desc>Created using Neo4j (http://www.neo4j.com/)</desc><g class="layer relationships"><g class="relationship" transform="translate(29.706542804244794 89.5504884429662) rotate(519.6687256239768)"><path class="outline" fill="#A5ABB6" stroke="none" d="M 25 0.5 L 43.07790503343327 0.5 L 43.07790503343327 -0.5 L 25 -0.5 Z M 108.07790503343327 0.5 L 126.15581006686654 0.5 L 126.15581006686654 3.5 L 133.15581006686654 0 L 126.15581006686654 -3.5 L 126.15581006686654 -0.5 L 108.07790503343327 -0.5 Z"/><text text-anchor="middle" pointer-events="none" font-size="8px" fill="#000000" x="75.57790503343327" y="3" transform="rotate(180 75.57790503343327 0)" font-family="sans-serif">AssociatesWith</text></g><g class="relationship" transform="translate(29.706542804244794 89.5504884429662) rotate(214.82379554640863)"><path class="outline" fill="#A5ABB6" stroke="none" d="M 25 0.5 L 71.31888643467785 0.5 L 71.31888643467785 -0.5 L 25 -0.5 Z M 136.31888643467784 0.5 L 182.6377728693557 0.5 L 182.6377728693557 3.5 L 189.6377728693557 0 L 182.6377728693557 -3.5 L 182.6377728693557 -0.5 L 136.31888643467784 -0.5 Z"/><text text-anchor="middle" pointer-events="none" font-size="8px" fill="#000000" x="103.81888643467785" y="3" transform="rotate(180 103.81888643467785 0)" font-family="sans-serif">AssociatesWith</text></g><g class="relationship" transform="translate(29.706542804244794 89.5504884429662) rotate(471.061366036354)"><path class="outline" fill="#A5ABB6" stroke="none" d="M 25 0.5 L 25.57126716736761 0.5 L 25.57126716736761 -0.5 L 25 -0.5 Z M 71.57126716736761 0.5 L 72.14253433473522 0.5 L 72.14253433473522 3.5 L 79.14253433473522 0 L 72.14253433473522 -3.5 L 72.14253433473522 -0.5 L 71.57126716736761 -0.5 Z"/><text text-anchor="middle" pointer-events="none" font-size="8px" fill="#000000" x="48.57126716736761" y="3" transform="rotate(180 48.57126716736761 0)" font-family="sans-serif">Associat…</text></g><g class="relationship" transform="translate(29.706542804244794 89.5504884429662) rotate(220.06676269223527)"><path class="outline" fill="#A5ABB6" stroke="none" d="M 25 0.5 L 42.825528392673576 0.5 L 42.825528392673576 -0.5 L 25 -0.5 Z M 107.82552839267358 0.5 L 125.65105678534715 0.5 L 125.65105678534715 3.5 L 132.65105678534715 0 L 125.65105678534715 -3.5 L 125.65105678534715 -0.5 L 107.82552839267358 -0.5 Z"/><text text-anchor="middle" pointer-events="none" font-size="8px" fill="#000000" x="75.32552839267358" y="3" transform="rotate(180 75.32552839267358 0)" font-family="sans-serif">AssociatesWith</text></g><g class="relationship" transform="translate(29.706542804244794 89.5504884429662) rotate(481.58719029181697)"><path class="outline" fill="#A5ABB6" stroke="none" d="M 25 0.5 L 43.49693645652064 0.5 L 43.49693645652064 -0.5 L 25 -0.5 Z M 108.49693645652064 0.5 L 126.99387291304129 0.5 L 126.99387291304129 3.5 L 133.9938729130413 0 L 126.99387291304129 -3.5 L 126.99387291304129 -0.5 L 108.49693645652064 -0.5 Z"/><text text-anchor="middle" pointer-events="none" font-size="8px" fill="#000000" x="75.99693645652064" y="3" transform="rotate(180 75.99693645652064 0)" font-family="sans-serif">AssociatesWith</text></g><g class="relationship" transform="translate(29.706542804244794 89.5504884429662) rotate(340.39685704619524)"><path class="outline" fill="#A5ABB6" stroke="none" d="M 25 0.5 L 45.45344800170136 0.5 L 45.45344800170136 -0.5 L 25 -0.5 Z M 110.45344800170136 0.5 L 130.90689600340272 0.5 L 130.90689600340272 3.5 L 137.90689600340272 0 L 130.90689600340272 -3.5 L 130.90689600340272 -0.5 L 110.45344800170136 -0.5 Z"/><text text-anchor="middle" pointer-events="none" font-size="8px" fill="#000000" x="77.95344800170136" y="3" font-family="sans-serif">AssociatesWith</text></g><g class="relationship" transform="translate(29.706542804244794 89.5504884429662) rotate(321.36670715524474)"><path class="outline" fill="#A5ABB6" stroke="none" d="M 25 0.5 L 28.538078919124814 0.5 L 28.538078919124814 -0.5 L 25 -0.5 Z M 83.53807891912481 0.5 L 87.07615783824963 0.5 L 87.07615783824963 3.5 L 94.07615783824963 0 L 87.07615783824963 -3.5 L 87.07615783824963 -0.5 L 83.53807891912481 -0.5 Z"/><text text-anchor="middle" pointer-events="none" font-size="8px" fill="#000000" x="56.038078919124814" y="3" font-family="sans-serif">Associates…</text></g><g class="relationship" transform="translate(29.706542804244794 89.5504884429662) rotate(302.19705812710424)"><path class="outline" fill="#A5ABB6" stroke="none" d="M 25 0.5 L 42.7197218692647 0.5 L 42.7197218692647 -0.5 L 25 -0.5 Z M 107.7197218692647 0.5 L 125.4394437385294 0.5 L 125.4394437385294 3.5 L 132.4394437385294 0 L 125.4394437385294 -3.5 L 125.4394437385294 -0.5 L 107.7197218692647 -0.5 Z"/><text text-anchor="middle" pointer-events="none" font-size="8px" fill="#000000" x="75.2197218692647" y="3" font-family="sans-serif">AssociatesWith</text></g><g class="relationship" transform="translate(29.706542804244794 89.5504884429662) rotate(200.83908844667906)"><path class="outline" fill="#A5ABB6" stroke="none" d="M 25 0.5 L 53.02536824808216 0.5 L 53.02536824808216 -0.5 L 25 -0.5 Z M 118.02536824808216 0.5 L 146.05073649616432 0.5 L 146.05073649616432 3.5 L 153.05073649616432 0 L 146.05073649616432 -3.5 L 146.05073649616432 -0.5 L 118.02536824808216 -0.5 Z"/><text text-anchor="middle" pointer-events="none" font-size="8px" fill="#000000" x="85.52536824808216" y="3" transform="rotate(180 85.52536824808216 0)" font-family="sans-serif">AssociatesWith</text></g><g class="relationship" transform="translate(29.706542804244794 89.5504884429662) rotate(321.92539850552924)"><path class="outline" fill="#A5ABB6" stroke="none" d="M 25 0.5 L 26.156903497947194 0.5 L 26.156903497947194 -0.5 L 25 -0.5 Z M 26.156903497947194 0.5 L 27.31380699589439 0.5 L 27.31380699589439 3.5 L 34.31380699589439 0 L 27.31380699589439 -3.5 L 27.31380699589439 -0.5 L 26.156903497947194 -0.5 Z"/><text text-anchor="middle" pointer-events="none" font-size="8px" fill="#000000" x="26.156903497947194" y="3" font-family="sans-serif"/></g><g class="relationship" transform="translate(29.706542804244794 89.5504884429662) rotate(440.7989809504478)"><path class="outline" fill="#A5ABB6" stroke="none" d="M 25 0.5 L 26.518593933600037 0.5 L 26.518593933600037 -0.5 L 25 -0.5 Z M 26.518593933600037 0.5 L 28.037187867200075 0.5 L 28.037187867200075 3.5 L 35.037187867200075 0 L 28.037187867200075 -3.5 L 28.037187867200075 -0.5 L 26.518593933600037 -0.5 Z"/><text text-anchor="middle" pointer-events="none" font-size="8px" fill="#000000" x="26.518593933600037" y="3" font-family="sans-serif"/></g><g class="relationship" transform="translate(29.706542804244794 89.5504884429662) rotate(181.39522949742536)"><path class="outline" fill="#A5ABB6" stroke="none" d="M 25 0.5 L 43.05098868855667 0.5 L 43.05098868855667 -0.5 L 25 -0.5 Z M 108.05098868855667 0.5 L 126.10197737711334 0.5 L 126.10197737711334 3.5 L 133.10197737711334 0 L 126.10197737711334 -3.5 L 126.10197737711334 -0.5 L 108.05098868855667 -0.5 Z"/><text text-anchor="middle" pointer-events="none" font-size="8px" fill="#000000" x="75.55098868855667" y="3" transform="rotate(180 75.55098868855667 0)" font-family="sans-serif">AssociatesWith</text></g><g class="relationship" transform="translate(29.706542804244794 89.5504884429662) rotate(500.70467817801284)"><path class="outline" fill="#A5ABB6" stroke="none" d="M 25 0.5 L 25.108730912199185 0.5 L 25.108730912199185 -0.5 L 25 -0.5 Z M 88.10873091219918 0.5 L 88.21746182439837 0.5 L 88.21746182439837 3.5 L 95.21746182439837 0 L 88.21746182439837 -3.5 L 88.21746182439837 -0.5 L 88.10873091219918 -0.5 Z"/><text text-anchor="middle" pointer-events="none" font-size="8px" fill="#000000" x="56.608730912199185" y="3" transform="rotate(180 56.608730912199185 0)" font-family="sans-serif">AssociatesW…</text></g><g class="relationship" transform="translate(29.706542804244794 89.5504884429662) rotate(280.0905790936711)"><path class="outline" fill="#A5ABB6" stroke="none" d="M 25 0.5 L 42.448810197529795 0.5 L 42.448810197529795 -0.5 L 25 -0.5 Z M 107.4488101975298 0.5 L 124.89762039505959 0.5 L 124.89762039505959 3.5 L 131.8976203950596 0 L 124.89762039505959 -3.5 L 124.89762039505959 -0.5 L 107.4488101975298 -0.5 Z"/><text text-anchor="middle" pointer-events="none" font-size="8px" fill="#000000" x="74.9488101975298" y="3" font-family="sans-serif">AssociatesWith</text></g><g class="relationship" transform="translate(29.706542804244794 89.5504884429662) rotate(241.87688991636003)"><path class="outline" fill="#A5ABB6" stroke="none" d="M 25 0.5 L 43.005906747568474 0.5 L 43.005906747568474 -0.5 L 25 -0.5 Z M 108.00590674756847 0.5 L 126.01181349513695 0.5 L 126.01181349513695 3.5 L 133.01181349513695 0 L 126.01181349513695 -3.5 L 126.01181349513695 -0.5 L 108.00590674756847 -0.5 Z"/><text text-anchor="middle" pointer-events="none" font-size="8px" fill="#000000" x="75.50590674756847" y="3" transform="rotate(180 75.50590674756847 0)" font-family="sans-serif">AssociatesWith</text></g><g class="relationship" transform="translate(29.706542804244794 89.5504884429662) rotate(260.95089258803165)"><path class="outline" fill="#A5ABB6" stroke="none" d="M 25 0.5 L 28.521600371887168 0.5 L 28.521600371887168 -0.5 L 25 -0.5 Z M 83.52160037188716 0.5 L 87.04320074377434 0.5 L 87.04320074377434 3.5 L 94.04320074377434 0 L 87.04320074377434 -3.5 L 87.04320074377434 -0.5 L 83.52160037188716 -0.5 Z"/><text text-anchor="middle" pointer-events="none" font-size="8px" fill="#000000" x="56.02160037188717" y="3" transform="rotate(180 56.02160037188717 0)" font-family="sans-serif">Associates…</text></g><g class="relationship" transform="translate(29.706542804244794 89.5504884429662) rotate(351.5428158461808)"><path class="outline" fill="#A5ABB6" stroke="none" d="M 25 0.5 L 25.257350457806623 0.5 L 25.257350457806623 -0.5 L 25 -0.5 Z M 71.25735045780662 0.5 L 71.51470091561325 0.5 L 71.51470091561325 3.5 L 78.51470091561325 0 L 71.51470091561325 -3.5 L 71.51470091561325 -0.5 L 71.25735045780662 -0.5 Z"/><text text-anchor="middle" pointer-events="none" font-size="8px" fill="#000000" x="48.25735045780662" y="3" font-family="sans-serif">Associat…</text></g><g class="relationship" transform="translate(29.706542804244794 89.5504884429662) rotate(411.36179758082403)"><path class="outline" fill="#A5ABB6" stroke="none" d="M 25 0.5 L 25.2319645422278 0.5 L 25.2319645422278 -0.5 L 25 -0.5 Z M 71.2319645422278 0.5 L 71.4639290844556 0.5 L 71.4639290844556 3.5 L 78.4639290844556 0 L 71.4639290844556 -3.5 L 71.4639290844556 -0.5 L 71.2319645422278 -0.5 Z"/><text text-anchor="middle" pointer-events="none" font-size="8px" fill="#000000" x="48.2319645422278" y="3" font-family="sans-serif">Associat…</text></g><g class="relationship" transform="translate(29.706542804244794 89.5504884429662) rotate(406.1662590632293)"><path class="outline" fill="#A5ABB6" stroke="none" d="M 25 0.5 L 65.90688681581162 0.5 L 65.90688681581162 -0.5 L 25 -0.5 Z M 130.90688681581162 0.5 L 171.81377363162323 0.5 L 171.81377363162323 3.5 L 178.81377363162323 0 L 171.81377363162323 -3.5 L 171.81377363162323 -0.5 L 130.90688681581162 -0.5 Z"/><text text-anchor="middle" pointer-events="none" font-size="8px" fill="#000000" x="98.40688681581162" y="3" font-family="sans-serif">AssociatesWith</text></g><g class="relationship" transform="translate(29.706542804244794 89.5504884429662) rotate(381.53093200961473)"><path class="outline" fill="#A5ABB6" stroke="none" d="M 25 0.5 L 26.524815910762253 0.5 L 26.524815910762253 -0.5 L 25 -0.5 Z M 26.524815910762253 0.5 L 28.049631821524507 0.5 L 28.049631821524507 3.5 L 35.04963182152451 0 L 28.049631821524507 -3.5 L 28.049631821524507 -0.5 L 26.524815910762253 -0.5 Z"/><text text-anchor="middle" pointer-events="none" font-size="8px" fill="#000000" x="26.524815910762253" y="3" font-family="sans-serif"/></g><g class="relationship" transform="translate(29.706542804244794 89.5504884429662) rotate(351.8655999315919)"><path class="outline" fill="#A5ABB6" stroke="none" d="M 25 0.5 L 90.21515416993456 0.5 L 90.21515416993456 -0.5 L 25 -0.5 Z M 155.21515416993458 0.5 L 220.43030833986913 0.5 L 220.43030833986913 3.5 L 227.43030833986913 0 L 220.43030833986913 -3.5 L 220.43030833986913 -0.5 L 155.21515416993458 -0.5 Z"/><text text-anchor="middle" pointer-events="none" font-size="8px" fill="#000000" x="122.71515416993456" y="3" font-family="sans-serif">AssociatesWith</text></g><g class="relationship" transform="translate(29.706542804244794 89.5504884429662) rotate(186.84117846645302)"><path class="outline" fill="#A5ABB6" stroke="none" d="M 25 0.5 L 70.94471450616052 0.5 L 70.94471450616052 -0.5 L 25 -0.5 Z M 135.94471450616052 0.5 L 181.88942901232105 0.5 L 181.88942901232105 3.5 L 188.88942901232105 0 L 181.88942901232105 -3.5 L 181.88942901232105 -0.5 L 135.94471450616052 -0.5 Z"/><text text-anchor="middle" pointer-events="none" font-size="8px" fill="#000000" x="103.44471450616052" y="3" transform="rotate(180 103.44471450616052 0)" font-family="sans-serif">AssociatesWith</text></g><g class="relationship" transform="translate(29.706542804244794 89.5504884429662) rotate(260.94589161578494)"><path class="outline" fill="#A5ABB6" stroke="none" d="M 25 0.5 L 53.17185105032078 0.5 L 53.17185105032078 -0.5 L 25 -0.5 Z M 118.17185105032078 0.5 L 146.34370210064156 0.5 L 146.34370210064156 3.5 L 153.34370210064156 0 L 146.34370210064156 -3.5 L 146.34370210064156 -0.5 L 118.17185105032078 -0.5 Z"/><text text-anchor="middle" pointer-events="none" font-size="8px" fill="#000000" x="85.67185105032078" y="3" transform="rotate(180 85.67185105032078 0)" font-family="sans-serif">AssociatesWith</text></g><g class="relationship" transform="translate(29.706542804244794 89.5504884429662) rotate(441.1456393278508)"><path class="outline" fill="#A5ABB6" stroke="none" d="M 25 0.5 L 28.874023426419498 0.5 L 28.874023426419498 -0.5 L 25 -0.5 Z M 83.8740234264195 0.5 L 87.748046852839 0.5 L 87.748046852839 3.5 L 94.748046852839 0 L 87.748046852839 -3.5 L 87.748046852839 -0.5 L 83.8740234264195 -0.5 Z"/><text text-anchor="middle" pointer-events="none" font-size="8px" fill="#000000" x="56.3740234264195" y="3" font-family="sans-serif">Associates…</text></g><g class="relationship" transform="translate(-35.212631392938114 10.341157418728741) rotate(411.0138311668585)"><path class="outline" fill="#A5ABB6" stroke="none" d="M 25 0.5 L 66.93702207744658 0.5 L 66.93702207744658 -0.5 L 25 -0.5 Z M 131.93702207744658 0.5 L 173.87404415489317 0.5 L 173.87404415489317 3.5 L 180.87404415489317 0 L 173.87404415489317 -3.5 L 173.87404415489317 -0.5 L 131.93702207744658 -0.5 Z"/><text text-anchor="middle" pointer-events="none" font-size="8px" fill="#000000" x="99.43702207744658" y="3" font-family="sans-serif">AssociatesWith</text></g><g class="relationship" transform="translate(-35.212631392938114 10.341157418728741) rotate(481.86184065589026)"><path class="outline" fill="#A5ABB6" stroke="none" d="M 25 0.5 L 42.98061629203754 0.5 L 42.98061629203754 -0.5 L 25 -0.5 Z M 107.98061629203754 0.5 L 125.96123258407508 0.5 L 125.96123258407508 3.5 L 132.96123258407508 0 L 125.96123258407508 -3.5 L 125.96123258407508 -0.5 L 107.98061629203754 -0.5 Z"/><text text-anchor="middle" pointer-events="none" font-size="8px" fill="#000000" x="75.48061629203754" y="3" transform="rotate(180 75.48061629203754 0)" font-family="sans-serif">AssociatesWith</text></g><g class="relationship" transform="translate(-35.212631392938114 10.341157418728741) rotate(454.88922297386256)"><path class="outline" fill="#A5ABB6" stroke="none" d="M 25 0.5 L 71.71559861595742 0.5 L 71.71559861595742 -0.5 L 25 -0.5 Z M 136.71559861595742 0.5 L 183.43119723191484 0.5 L 183.43119723191484 3.5 L 190.43119723191484 0 L 183.43119723191484 -3.5 L 183.43119723191484 -0.5 L 136.71559861595742 -0.5 Z"/><text text-anchor="middle" pointer-events="none" font-size="8px" fill="#000000" x="104.21559861595742" y="3" transform="rotate(180 104.21559861595742 0)" font-family="sans-serif">AssociatesWith</text></g><g class="relationship" transform="translate(-35.212631392938114 10.341157418728741) rotate(519.9777421528811)"><path class="outline" fill="#A5ABB6" stroke="none" d="M 25 0.5 L 42.466220736570094 0.5 L 42.466220736570094 -0.5 L 25 -0.5 Z M 107.4662207365701 0.5 L 124.93244147314019 0.5 L 124.93244147314019 3.5 L 131.9324414731402 0 L 124.93244147314019 -3.5 L 124.93244147314019 -0.5 L 107.4662207365701 -0.5 Z"/><text text-anchor="middle" pointer-events="none" font-size="8px" fill="#000000" x="74.9662207365701" y="3" transform="rotate(180 74.9662207365701 0)" font-family="sans-serif">AssociatesWith</text></g><g class="relationship" transform="translate(-35.212631392938114 10.341157418728741) rotate(201.77952921818087)"><path class="outline" fill="#A5ABB6" stroke="none" d="M 25 0.5 L 26.50714663700324 0.5 L 26.50714663700324 -0.5 L 25 -0.5 Z M 26.50714663700324 0.5 L 28.014293274006477 0.5 L 28.014293274006477 3.5 L 35.01429327400648 0 L 28.014293274006477 -3.5 L 28.014293274006477 -0.5 L 26.50714663700324 -0.5 Z"/><text text-anchor="middle" pointer-events="none" font-size="8px" fill="#000000" x="26.50714663700324" y="3" transform="rotate(180 26.50714663700324 0)" font-family="sans-serif"/></g><g class="relationship" transform="translate(-35.212631392938114 10.341157418728741) rotate(290.8207825101681)"><path class="outline" fill="#A5ABB6" stroke="none" d="M 25 0.5 L 25.34153705563096 0.5 L 25.34153705563096 -0.5 L 25 -0.5 Z M 71.34153705563097 0.5 L 71.68307411126192 0.5 L 71.68307411126192 3.5 L 78.68307411126192 0 L 71.68307411126192 -3.5 L 71.68307411126192 -0.5 L 71.34153705563097 -0.5 Z"/><text text-anchor="middle" pointer-events="none" font-size="8px" fill="#000000" x="48.34153705563096" y="3" font-family="sans-serif">Associat…</text></g><g class="relationship" transform="translate(-35.212631392938114 10.341157418728741) rotate(361.7647470814792)"><path class="outline" fill="#A5ABB6" stroke="none" d="M 25 0.5 L 43.005695802359824 0.5 L 43.005695802359824 -0.5 L 25 -0.5 Z M 108.00569580235982 0.5 L 126.01139160471965 0.5 L 126.01139160471965 3.5 L 133.01139160471965 0 L 126.01139160471965 -3.5 L 126.01139160471965 -0.5 L 108.00569580235982 -0.5 Z"/><text text-anchor="middle" pointer-events="none" font-size="8px" fill="#000000" x="75.50569580235982" y="3" font-family="sans-serif">AssociatesWith</text></g><g class="relationship" transform="translate(-35.212631392938114 10.341157418728741) rotate(399.9728596460943)"><path class="outline" fill="#A5ABB6" stroke="none" d="M 25 0.5 L 42.80126576761904 0.5 L 42.80126576761904 -0.5 L 25 -0.5 Z M 107.80126576761904 0.5 L 125.60253153523809 0.5 L 125.60253153523809 3.5 L 132.60253153523809 0 L 125.60253153523809 -3.5 L 125.60253153523809 -0.5 L 107.80126576761904 -0.5 Z"/><text text-anchor="middle" pointer-events="none" font-size="8px" fill="#000000" x="75.30126576761904" y="3" font-family="sans-serif">AssociatesWith</text></g><g class="relationship" transform="translate(-35.212631392938114 10.341157418728741) rotate(320.8391383042318)"><path class="outline" fill="#A5ABB6" stroke="none" d="M 25 0.5 L 28.589407320576775 0.5 L 28.589407320576775 -0.5 L 25 -0.5 Z M 83.58940732057678 0.5 L 87.17881464115355 0.5 L 87.17881464115355 3.5 L 94.17881464115355 0 L 87.17881464115355 -3.5 L 87.17881464115355 -0.5 L 83.58940732057678 -0.5 Z"/><text text-anchor="middle" pointer-events="none" font-size="8px" fill="#000000" x="56.089407320576775" y="3" font-family="sans-serif">Associates…</text></g><g class="relationship" transform="translate(-35.212631392938114 10.341157418728741) rotate(201.2885810819592)"><path class="outline" fill="#A5ABB6" stroke="none" d="M 25 0.5 L 28.714488398363684 0.5 L 28.714488398363684 -0.5 L 25 -0.5 Z M 83.71448839836368 0.5 L 87.42897679672737 0.5 L 87.42897679672737 3.5 L 94.42897679672737 0 L 87.42897679672737 -3.5 L 87.42897679672737 -0.5 L 83.71448839836368 -0.5 Z"/><text text-anchor="middle" pointer-events="none" font-size="8px" fill="#000000" x="56.214488398363684" y="3" transform="rotate(180 56.214488398363684 0)" font-family="sans-serif">Associates…</text></g><g class="relationship" transform="translate(-35.212631392938114 10.341157418728741) rotate(291.10698743224015)"><path class="outline" fill="#A5ABB6" stroke="none" d="M 25 0.5 L 45.970303208600114 0.5 L 45.970303208600114 -0.5 L 25 -0.5 Z M 110.97030320860011 0.5 L 131.94060641720023 0.5 L 131.94060641720023 3.5 L 138.94060641720023 0 L 131.94060641720023 -3.5 L 131.94060641720023 -0.5 L 110.97030320860011 -0.5 Z"/><text text-anchor="middle" pointer-events="none" font-size="8px" fill="#000000" x="78.47030320860011" y="3" font-family="sans-serif">AssociatesWith</text></g><g class="relationship" transform="translate(-35.212631392938114 10.341157418728741) rotate(380.90492325099353)"><path class="outline" fill="#A5ABB6" stroke="none" d="M 25 0.5 L 28.738082626202655 0.5 L 28.738082626202655 -0.5 L 25 -0.5 Z M 83.73808262620265 0.5 L 87.47616525240531 0.5 L 87.47616525240531 3.5 L 94.47616525240531 0 L 87.47616525240531 -3.5 L 87.47616525240531 -0.5 L 83.73808262620265 -0.5 Z"/><text text-anchor="middle" pointer-events="none" font-size="8px" fill="#000000" x="56.238082626202655" y="3" font-family="sans-serif">Associates…</text></g><g class="relationship" transform="translate(-35.212631392938114 10.341157418728741) rotate(531.1128085138503)"><path class="outline" fill="#A5ABB6" stroke="none" d="M 25 0.5 L 26.358615803932985 0.5 L 26.358615803932985 -0.5 L 25 -0.5 Z M 69.35861580393299 0.5 L 70.71723160786597 0.5 L 70.71723160786597 3.5 L 77.71723160786597 0 L 70.71723160786597 -3.5 L 70.71723160786597 -0.5 L 69.35861580393299 -0.5 Z"/><text text-anchor="middle" pointer-events="none" font-size="8px" fill="#000000" x="47.858615803932985" y="3" transform="rotate(180 47.858615803932985 0)" font-family="sans-serif">Associa…</text></g><g class="relationship" transform="translate(-35.212631392938114 10.341157418728741) rotate(441.14089062051187)"><path class="outline" fill="#A5ABB6" stroke="none" d="M 25 0.5 L 53.26226349966153 0.5 L 53.26226349966153 -0.5 L 25 -0.5 Z M 118.26226349966153 0.5 L 146.52452699932306 0.5 L 146.52452699932306 3.5 L 153.52452699932306 0 L 146.52452699932306 -3.5 L 146.52452699932306 -0.5 L 118.26226349966153 -0.5 Z"/><text text-anchor="middle" pointer-events="none" font-size="8px" fill="#000000" x="85.76226349966153" y="3" font-family="sans-serif">AssociatesWith</text></g><g class="relationship" transform="translate(-35.212631392938114 10.341157418728741) rotate(340.04848176748715)"><path class="outline" fill="#A5ABB6" stroke="none" d="M 25 0.5 L 43.15477485383589 0.5 L 43.15477485383589 -0.5 L 25 -0.5 Z M 108.15477485383589 0.5 L 126.30954970767178 0.5 L 126.30954970767178 3.5 L 133.30954970767178 0 L 126.30954970767178 -3.5 L 126.30954970767178 -0.5 L 108.15477485383589 -0.5 Z"/><text text-anchor="middle" pointer-events="none" font-size="8px" fill="#000000" x="75.65477485383589" y="3" font-family="sans-serif">AssociatesWith</text></g><g class="relationship" transform="translate(-35.212631392938114 10.341157418728741) rotate(421.7133284047279)"><path class="outline" fill="#A5ABB6" stroke="none" d="M 25 0.5 L 42.62593309854374 0.5 L 42.62593309854374 -0.5 L 25 -0.5 Z M 107.62593309854374 0.5 L 125.25186619708748 0.5 L 125.25186619708748 3.5 L 132.25186619708748 0 L 125.25186619708748 -3.5 L 125.25186619708748 -0.5 L 107.62593309854374 -0.5 Z"/><text text-anchor="middle" pointer-events="none" font-size="8px" fill="#000000" x="75.12593309854374" y="3" font-family="sans-serif">AssociatesWith</text></g><g class="relationship" transform="translate(-35.212631392938114 10.341157418728741) rotate(320.30027049712095)"><path class="outline" fill="#A5ABB6" stroke="none" d="M 25 0.5 L 26.520661017738508 0.5 L 26.520661017738508 -0.5 L 25 -0.5 Z M 26.520661017738508 0.5 L 28.041322035477016 0.5 L 28.041322035477016 3.5 L 35.041322035477016 0 L 28.041322035477016 -3.5 L 28.041322035477016 -0.5 L 26.520661017738508 -0.5 Z"/><text text-anchor="middle" pointer-events="none" font-size="8px" fill="#000000" x="26.520661017738508" y="3" font-family="sans-serif"/></g><g class="relationship" transform="translate(-35.212631392938114 10.341157418728741) rotate(501.0224012597172)"><path class="outline" fill="#A5ABB6" stroke="none" d="M 25 0.5 L 28.902812904104515 0.5 L 28.902812904104515 -0.5 L 25 -0.5 Z M 83.90281290410451 0.5 L 87.80562580820903 0.5 L 87.80562580820903 3.5 L 94.80562580820903 0 L 87.80562580820903 -3.5 L 87.80562580820903 -0.5 L 83.90281290410451 -0.5 Z"/><text text-anchor="middle" pointer-events="none" font-size="8px" fill="#000000" x="56.402812904104515" y="3" transform="rotate(180 56.402812904104515 0)" font-family="sans-serif">Associates…</text></g><g class="relationship" transform="translate(-35.212631392938114 10.341157418728741) rotate(380.9288599746978)"><path class="outline" fill="#A5ABB6" stroke="none" d="M 25 0.5 L 53.56308469127448 0.5 L 53.56308469127448 -0.5 L 25 -0.5 Z M 118.56308469127448 0.5 L 147.12616938254897 0.5 L 147.12616938254897 3.5 L 154.12616938254897 0 L 147.12616938254897 -3.5 L 147.12616938254897 -0.5 L 118.56308469127448 -0.5 Z"/><text text-anchor="middle" pointer-events="none" font-size="8px" fill="#000000" x="86.06308469127448" y="3" font-family="sans-serif">AssociatesWith</text></g><g class="relationship" transform="translate(-35.212631392938114 10.341157418728741) rotate(460.2589872804117)"><path class="outline" fill="#A5ABB6" stroke="none" d="M 25 0.5 L 42.93453215334107 0.5 L 42.93453215334107 -0.5 L 25 -0.5 Z M 107.93453215334107 0.5 L 125.86906430668213 0.5 L 125.86906430668213 3.5 L 132.86906430668213 0 L 125.86906430668213 -3.5 L 125.86906430668213 -0.5 L 107.93453215334107 -0.5 Z"/><text text-anchor="middle" pointer-events="none" font-size="8px" fill="#000000" x="75.43453215334107" y="3" transform="rotate(180 75.43453215334107 0)" font-family="sans-serif">AssociatesWith</text></g><g class="relationship" transform="translate(-35.212631392938114 10.341157418728741) rotate(260.9664402561301)"><path class="outline" fill="#A5ABB6" stroke="none" d="M 25 0.5 L 26.951252896254175 0.5 L 26.951252896254175 -0.5 L 25 -0.5 Z M 26.951252896254175 0.5 L 28.90250579250835 0.5 L 28.90250579250835 3.5 L 35.90250579250835 0 L 28.90250579250835 -3.5 L 28.90250579250835 -0.5 L 26.951252896254175 -0.5 Z"/><text text-anchor="middle" pointer-events="none" font-size="8px" fill="#000000" x="26.951252896254175" y="3" transform="rotate(180 26.951252896254175 0)" font-family="sans-serif"/></g><g class="relationship" transform="translate(-71.70350109833083 106.69742744206333) rotate(260.78745405014524)"><path class="outline" fill="#A5ABB6" stroke="none" d="M 25 0.5 L 25.086916235083862 0.5 L 25.086916235083862 -0.5 L 25 -0.5 Z M 88.08691623508386 0.5 L 88.17383247016772 0.5 L 88.17383247016772 3.5 L 95.17383247016772 0 L 88.17383247016772 -3.5 L 88.17383247016772 -0.5 L 88.08691623508386 -0.5 Z"/><text text-anchor="middle" pointer-events="none" font-size="8px" fill="#000000" x="56.58691623508386" y="3" transform="rotate(180 56.58691623508386 0)" font-family="sans-serif">AssociatesW…</text></g><g class="relationship" transform="translate(-71.70350109833083 106.69742744206333) rotate(200.3381703411962)"><path class="outline" fill="#A5ABB6" stroke="none" d="M 25 0.5 L 26.705620672564038 0.5 L 26.705620672564038 -0.5 L 25 -0.5 Z M 26.705620672564038 0.5 L 28.411241345128076 0.5 L 28.411241345128076 3.5 L 35.411241345128076 0 L 28.411241345128076 -3.5 L 28.411241345128076 -0.5 L 26.705620672564038 -0.5 Z"/><text text-anchor="middle" pointer-events="none" font-size="8px" fill="#000000" x="26.705620672564038" y="3" transform="rotate(180 26.705620672564038 0)" font-family="sans-serif"/></g><g class="relationship" transform="translate(-71.70350109833083 106.69742744206333) rotate(380.9827835271797)"><path class="outline" fill="#A5ABB6" stroke="none" d="M 25 0.5 L 52.90173445179556 0.5 L 52.90173445179556 -0.5 L 25 -0.5 Z M 117.90173445179556 0.5 L 145.80346890359112 0.5 L 145.80346890359112 3.5 L 152.80346890359112 0 L 145.80346890359112 -3.5 L 145.80346890359112 -0.5 L 117.90173445179556 -0.5 Z"/><text text-anchor="middle" pointer-events="none" font-size="8px" fill="#000000" x="85.40173445179556" y="3" font-family="sans-serif">AssociatesWith</text></g><g class="relationship" transform="translate(-71.70350109833083 106.69742744206333) rotate(279.76286838311273)"><path class="outline" fill="#A5ABB6" stroke="none" d="M 25 0.5 L 43.40158087638078 0.5 L 43.40158087638078 -0.5 L 25 -0.5 Z M 108.40158087638078 0.5 L 126.80316175276155 0.5 L 126.80316175276155 3.5 L 133.80316175276155 0 L 126.80316175276155 -3.5 L 126.80316175276155 -0.5 L 108.40158087638078 -0.5 Z"/><text text-anchor="middle" pointer-events="none" font-size="8px" fill="#000000" x="75.90158087638078" y="3" font-family="sans-serif">AssociatesWith</text></g><g class="relationship" transform="translate(-71.70350109833083 106.69742744206333) rotate(441.9196536482741)"><path class="outline" fill="#A5ABB6" stroke="none" d="M 25 0.5 L 26.29021218233015 0.5 L 26.29021218233015 -0.5 L 25 -0.5 Z M 26.29021218233015 0.5 L 27.580424364660303 0.5 L 27.580424364660303 3.5 L 34.5804243646603 0 L 27.580424364660303 -3.5 L 27.580424364660303 -0.5 L 26.29021218233015 -0.5 Z"/><text text-anchor="middle" pointer-events="none" font-size="8px" fill="#000000" x="26.29021218233015" y="3" font-family="sans-serif"/></g><g class="relationship" transform="translate(-71.70350109833083 106.69742744206333) rotate(350.97469703498757)"><path class="outline" fill="#A5ABB6" stroke="none" d="M 25 0.5 L 67.17698289552409 0.5 L 67.17698289552409 -0.5 L 25 -0.5 Z M 132.17698289552408 0.5 L 174.35396579104818 0.5 L 174.35396579104818 3.5 L 181.35396579104818 0 L 174.35396579104818 -3.5 L 174.35396579104818 -0.5 L 132.17698289552408 -0.5 Z"/><text text-anchor="middle" pointer-events="none" font-size="8px" fill="#000000" x="99.67698289552409" y="3" font-family="sans-serif">AssociatesWith</text></g><g class="relationship" transform="translate(-71.70350109833083 106.69742744206333) rotate(340.06146784832094)"><path class="outline" fill="#A5ABB6" stroke="none" d="M 25 0.5 L 42.77291443792758 0.5 L 42.77291443792758 -0.5 L 25 -0.5 Z M 107.77291443792758 0.5 L 125.54582887585516 0.5 L 125.54582887585516 3.5 L 132.54582887585516 0 L 125.54582887585516 -3.5 L 125.54582887585516 -0.5 L 107.77291443792758 -0.5 Z"/><text text-anchor="middle" pointer-events="none" font-size="8px" fill="#000000" x="75.27291443792758" y="3" font-family="sans-serif">AssociatesWith</text></g><g class="relationship" transform="translate(-71.70350109833083 106.69742744206333) rotate(301.54244580036203)"><path class="outline" fill="#A5ABB6" stroke="none" d="M 25 0.5 L 43.0308390300914 0.5 L 43.0308390300914 -0.5 L 25 -0.5 Z M 108.0308390300914 0.5 L 126.0616780601828 0.5 L 126.0616780601828 3.5 L 133.0616780601828 0 L 126.0616780601828 -3.5 L 126.0616780601828 -0.5 L 108.0308390300914 -0.5 Z"/><text text-anchor="middle" pointer-events="none" font-size="8px" fill="#000000" x="75.5308390300914" y="3" font-family="sans-serif">AssociatesWith</text></g><g class="relationship" transform="translate(-71.70350109833083 106.69742744206333) rotate(380.77702230980856)"><path class="outline" fill="#A5ABB6" stroke="none" d="M 25 0.5 L 28.365621843579355 0.5 L 28.365621843579355 -0.5 L 25 -0.5 Z M 83.36562184357936 0.5 L 86.73124368715871 0.5 L 86.73124368715871 3.5 L 93.73124368715871 0 L 86.73124368715871 -3.5 L 86.73124368715871 -0.5 L 83.36562184357936 -0.5 Z"/><text text-anchor="middle" pointer-events="none" font-size="8px" fill="#000000" x="55.865621843579355" y="3" font-family="sans-serif">Associates…</text></g><g class="relationship" transform="translate(-25.742681539507586 68.91478792680715) rotate(381.0518004173633)"><path class="outline" fill="#A5ABB6" stroke="none" d="M 25 0.5 L 53.62726480749694 0.5 L 53.62726480749694 -0.5 L 25 -0.5 Z M 118.62726480749694 0.5 L 147.25452961499388 0.5 L 147.25452961499388 3.5 L 154.25452961499388 0 L 147.25452961499388 -3.5 L 147.25452961499388 -0.5 L 118.62726480749694 -0.5 Z"/><text text-anchor="middle" pointer-events="none" font-size="8px" fill="#000000" x="86.12726480749694" y="3" font-family="sans-serif">AssociatesWith</text></g><g class="relationship" transform="translate(-25.742681539507586 68.91478792680715) rotate(471.22618546265767)"><path class="outline" fill="#A5ABB6" stroke="none" d="M 25 0.5 L 25.407241244193628 0.5 L 25.407241244193628 -0.5 L 25 -0.5 Z M 71.40724124419363 0.5 L 71.81448248838726 0.5 L 71.81448248838726 3.5 L 78.81448248838726 0 L 71.81448248838726 -3.5 L 71.81448248838726 -0.5 L 71.40724124419363 -0.5 Z"/><text text-anchor="middle" pointer-events="none" font-size="8px" fill="#000000" x="48.40724124419363" y="3" transform="rotate(180 48.40724124419363 0)" font-family="sans-serif">Associat…</text></g><g class="relationship" transform="translate(-25.742681539507586 68.91478792680715) rotate(340.11248043753267)"><path class="outline" fill="#A5ABB6" stroke="none" d="M 25 0.5 L 42.94111918778776 0.5 L 42.94111918778776 -0.5 L 25 -0.5 Z M 107.94111918778776 0.5 L 125.88223837557553 0.5 L 125.88223837557553 3.5 L 132.88223837557553 0 L 125.88223837557553 -3.5 L 125.88223837557553 -0.5 L 107.94111918778776 -0.5 Z"/><text text-anchor="middle" pointer-events="none" font-size="8px" fill="#000000" x="75.44111918778776" y="3" font-family="sans-serif">AssociatesWith</text></g><g class="relationship" transform="translate(-25.742681539507586 68.91478792680715) rotate(290.75210281610566)"><path class="outline" fill="#A5ABB6" stroke="none" d="M 25 0.5 L 25.32524594611838 0.5 L 25.32524594611838 -0.5 L 25 -0.5 Z M 71.32524594611837 0.5 L 71.65049189223676 0.5 L 71.65049189223676 3.5 L 78.65049189223676 0 L 71.65049189223676 -3.5 L 71.65049189223676 -0.5 L 71.32524594611837 -0.5 Z"/><text text-anchor="middle" pointer-events="none" font-size="8px" fill="#000000" x="48.32524594611838" y="3" font-family="sans-serif">Associat…</text></g><g class="relationship" transform="translate(-25.742681539507586 68.91478792680715) rotate(231.11297183627823)"><path class="outline" fill="#A5ABB6" stroke="none" d="M 25 0.5 L 25.428716158966573 0.5 L 25.428716158966573 -0.5 L 25 -0.5 Z M 71.42871615896658 0.5 L 71.85743231793315 0.5 L 71.85743231793315 3.5 L 78.85743231793315 0 L 71.85743231793315 -3.5 L 71.85743231793315 -0.5 L 71.42871615896658 -0.5 Z"/><text text-anchor="middle" pointer-events="none" font-size="8px" fill="#000000" x="48.42871615896657" y="3" transform="rotate(180 48.42871615896657 0)" font-family="sans-serif">Associat…</text></g><g class="relationship" transform="translate(-25.742681539507586 68.91478792680715) rotate(279.9883605127692)"><path class="outline" fill="#A5ABB6" stroke="none" d="M 25 0.5 L 42.93941860027422 0.5 L 42.93941860027422 -0.5 L 25 -0.5 Z M 107.93941860027422 0.5 L 125.87883720054845 0.5 L 125.87883720054845 3.5 L 132.87883720054845 0 L 125.87883720054845 -3.5 L 125.87883720054845 -0.5 L 107.93941860027422 -0.5 Z"/><text text-anchor="middle" pointer-events="none" font-size="8px" fill="#000000" x="75.43941860027422" y="3" font-family="sans-serif">AssociatesWith</text></g><g class="relationship" transform="translate(-25.742681539507586 68.91478792680715) rotate(220.17034480167553)"><path class="outline" fill="#A5ABB6" stroke="none" d="M 25 0.5 L 43.01111281551127 0.5 L 43.01111281551127 -0.5 L 25 -0.5 Z M 108.01111281551127 0.5 L 126.02222563102254 0.5 L 126.02222563102254 3.5 L 133.02222563102254 0 L 126.02222563102254 -3.5 L 126.02222563102254 -0.5 L 108.01111281551127 -0.5 Z"/><text text-anchor="middle" pointer-events="none" font-size="8px" fill="#000000" x="75.51111281551127" y="3" transform="rotate(180 75.51111281551127 0)" font-family="sans-serif">AssociatesWith</text></g><g class="relationship" transform="translate(-25.742681539507586 68.91478792680715) rotate(530.708849543171)"><path class="outline" fill="#A5ABB6" stroke="none" d="M 25 0.5 L 25.48494746807328 0.5 L 25.48494746807328 -0.5 L 25 -0.5 Z M 71.48494746807327 0.5 L 71.96989493614656 0.5 L 71.96989493614656 3.5 L 78.96989493614656 0 L 71.96989493614656 -3.5 L 71.96989493614656 -0.5 L 71.48494746807327 -0.5 Z"/><text text-anchor="middle" pointer-events="none" font-size="8px" fill="#000000" x="48.48494746807328" y="3" transform="rotate(180 48.48494746807328 0)" font-family="sans-serif">Associat…</text></g><g class="relationship" transform="translate(-25.742681539507586 68.91478792680715) rotate(380.9761143267315)"><path class="outline" fill="#A5ABB6" stroke="none" d="M 25 0.5 L 28.604274106923924 0.5 L 28.604274106923924 -0.5 L 25 -0.5 Z M 83.60427410692392 0.5 L 87.20854821384785 0.5 L 87.20854821384785 3.5 L 94.20854821384785 0 L 87.20854821384785 -3.5 L 87.20854821384785 -0.5 L 83.60427410692392 -0.5 Z"/><text text-anchor="middle" pointer-events="none" font-size="8px" fill="#000000" x="56.104274106923924" y="3" font-family="sans-serif">Associates…</text></g><g class="relationship" transform="translate(-25.742681539507586 68.91478792680715) rotate(422.00107117871136)"><path class="outline" fill="#A5ABB6" stroke="none" d="M 25 0.5 L 42.688307404155864 0.5 L 42.688307404155864 -0.5 L 25 -0.5 Z M 107.68830740415586 0.5 L 125.37661480831173 0.5 L 125.37661480831173 3.5 L 132.37661480831173 0 L 125.37661480831173 -3.5 L 125.37661480831173 -0.5 L 107.68830740415586 -0.5 Z"/><text text-anchor="middle" pointer-events="none" font-size="8px" fill="#000000" x="75.18830740415586" y="3" font-family="sans-serif">AssociatesWith</text></g><g class="relationship" transform="translate(-25.742681539507586 68.91478792680715) rotate(351.1287957071912)"><path class="outline" fill="#A5ABB6" stroke="none" d="M 25 0.5 L 25.189108976227928 0.5 L 25.189108976227928 -0.5 L 25 -0.5 Z M 71.18910897622793 0.5 L 71.37821795245586 0.5 L 71.37821795245586 3.5 L 78.37821795245586 0 L 71.37821795245586 -3.5 L 71.37821795245586 -0.5 L 71.18910897622793 -0.5 Z"/><text text-anchor="middle" pointer-events="none" font-size="8px" fill="#000000" x="48.18910897622793" y="3" font-family="sans-serif">Associat…</text></g><g class="relationship" transform="translate(-25.742681539507586 68.91478792680715) rotate(441.30256372428414)"><path class="outline" fill="#A5ABB6" stroke="none" d="M 25 0.5 L 28.59586534669897 0.5 L 28.59586534669897 -0.5 L 25 -0.5 Z M 83.59586534669897 0.5 L 87.19173069339794 0.5 L 87.19173069339794 3.5 L 94.19173069339794 0 L 87.19173069339794 -3.5 L 87.19173069339794 -0.5 L 83.59586534669897 -0.5 Z"/><text text-anchor="middle" pointer-events="none" font-size="8px" fill="#000000" x="56.09586534669897" y="3" font-family="sans-serif">Associates…</text></g><g class="relationship" transform="translate(-25.742681539507586 68.91478792680715) rotate(260.8922591168932)"><path class="outline" fill="#A5ABB6" stroke="none" d="M 25 0.5 L 25.118313191918112 0.5 L 25.118313191918112 -0.5 L 25 -0.5 Z M 88.1183131919181 0.5 L 88.23662638383622 0.5 L 88.23662638383622 3.5 L 95.23662638383622 0 L 88.23662638383622 -3.5 L 88.23662638383622 -0.5 L 88.1183131919181 -0.5 Z"/><text text-anchor="middle" pointer-events="none" font-size="8px" fill="#000000" x="56.61831319191811" y="3" transform="rotate(180 56.61831319191811 0)" font-family="sans-serif">AssociatesW…</text></g><g class="relationship" transform="translate(-25.742681539507586 68.91478792680715) rotate(400.19996758032664)"><path class="outline" fill="#A5ABB6" stroke="none" d="M 25 0.5 L 42.58911014300095 0.5 L 42.58911014300095 -0.5 L 25 -0.5 Z M 107.58911014300095 0.5 L 125.1782202860019 0.5 L 125.1782202860019 3.5 L 132.1782202860019 0 L 125.1782202860019 -3.5 L 125.1782202860019 -0.5 L 107.58911014300095 -0.5 Z"/><text text-anchor="middle" pointer-events="none" font-size="8px" fill="#000000" x="75.08911014300095" y="3" font-family="sans-serif">AssociatesWith</text></g><g class="relationship" transform="translate(-25.742681539507586 68.91478792680715) rotate(500.85296702153164)"><path class="outline" fill="#A5ABB6" stroke="none" d="M 25 0.5 L 28.86459244797357 0.5 L 28.86459244797357 -0.5 L 25 -0.5 Z M 83.86459244797356 0.5 L 87.72918489594714 0.5 L 87.72918489594714 3.5 L 94.72918489594714 0 L 87.72918489594714 -3.5 L 87.72918489594714 -0.5 L 83.86459244797356 -0.5 Z"/><text text-anchor="middle" pointer-events="none" font-size="8px" fill="#000000" x="56.36459244797357" y="3" transform="rotate(180 56.36459244797357 0)" font-family="sans-serif">Associates…</text></g><g class="relationship" transform="translate(-25.742681539507586 68.91478792680715) rotate(301.78676767384553)"><path class="outline" fill="#A5ABB6" stroke="none" d="M 25 0.5 L 42.72515601949074 0.5 L 42.72515601949074 -0.5 L 25 -0.5 Z M 107.72515601949074 0.5 L 125.45031203898148 0.5 L 125.45031203898148 3.5 L 132.45031203898148 0 L 125.45031203898148 -3.5 L 125.45031203898148 -0.5 L 107.72515601949074 -0.5 Z"/><text text-anchor="middle" pointer-events="none" font-size="8px" fill="#000000" x="75.22515601949074" y="3" font-family="sans-serif">AssociatesWith</text></g><g class="relationship" transform="translate(-25.742681539507586 68.91478792680715) rotate(201.05113030006663)"><path class="outline" fill="#A5ABB6" stroke="none" d="M 25 0.5 L 28.444298735792813 0.5 L 28.444298735792813 -0.5 L 25 -0.5 Z M 83.44429873579281 0.5 L 86.88859747158563 0.5 L 86.88859747158563 3.5 L 93.88859747158563 0 L 86.88859747158563 -3.5 L 86.88859747158563 -0.5 L 83.44429873579281 -0.5 Z"/><text text-anchor="middle" pointer-events="none" font-size="8px" fill="#000000" x="55.94429873579281" y="3" transform="rotate(180 55.94429873579281 0)" font-family="sans-serif">Associates…</text></g><g class="relationship" transform="translate(-25.742681539507586 68.91478792680715) rotate(410.850030011418)"><path class="outline" fill="#A5ABB6" stroke="none" d="M 25 0.5 L 25.015680009866436 0.5 L 25.015680009866436 -0.5 L 25 -0.5 Z M 71.01568000986643 0.5 L 71.03136001973287 0.5 L 71.03136001973287 3.5 L 78.03136001973287 0 L 71.03136001973287 -3.5 L 71.03136001973287 -0.5 L 71.01568000986643 -0.5 Z"/><text text-anchor="middle" pointer-events="none" font-size="8px" fill="#000000" x="48.015680009866436" y="3" font-family="sans-serif">Associat…</text></g><g class="relationship" transform="translate(-81.4130061935095 47.891514747548) rotate(441.27191995946316)"><path class="outline" fill="#A5ABB6" stroke="none" d="M 25 0.5 L 28.587453617825545 0.5 L 28.587453617825545 -0.5 L 25 -0.5 Z M 83.58745361782555 0.5 L 87.17490723565109 0.5 L 87.17490723565109 3.5 L 94.17490723565109 0 L 87.17490723565109 -3.5 L 87.17490723565109 -0.5 L 83.58745361782555 -0.5 Z"/><text text-anchor="middle" pointer-events="none" font-size="8px" fill="#000000" x="56.087453617825545" y="3" font-family="sans-serif">Associates…</text></g><g class="relationship" transform="translate(-81.4130061935095 47.891514747548) rotate(260.94787518300365)"><path class="outline" fill="#A5ABB6" stroke="none" d="M 25 0.5 L 26.786107549787918 0.5 L 26.786107549787918 -0.5 L 25 -0.5 Z M 26.786107549787918 0.5 L 28.572215099575835 0.5 L 28.572215099575835 3.5 L 35.572215099575835 0 L 28.572215099575835 -3.5 L 28.572215099575835 -0.5 L 26.786107549787918 -0.5 Z"/><text text-anchor="middle" pointer-events="none" font-size="8px" fill="#000000" x="26.786107549787918" y="3" transform="rotate(180 26.786107549787918 0)" font-family="sans-serif"/></g><g class="relationship" transform="translate(-81.4130061935095 47.891514747548) rotate(380.8803402210701)"><path class="outline" fill="#A5ABB6" stroke="none" d="M 25 0.5 L 53.35786016932896 0.5 L 53.35786016932896 -0.5 L 25 -0.5 Z M 118.35786016932896 0.5 L 146.71572033865792 0.5 L 146.71572033865792 3.5 L 153.71572033865792 0 L 146.71572033865792 -3.5 L 146.71572033865792 -0.5 L 118.35786016932896 -0.5 Z"/><text text-anchor="middle" pointer-events="none" font-size="8px" fill="#000000" x="85.85786016932896" y="3" font-family="sans-serif">AssociatesWith</text></g><g class="relationship" transform="translate(-81.4130061935095 47.891514747548) rotate(422.0420873952436)"><path class="outline" fill="#A5ABB6" stroke="none" d="M 25 0.5 L 42.59481559068719 0.5 L 42.59481559068719 -0.5 L 25 -0.5 Z M 107.59481559068719 0.5 L 125.18963118137438 0.5 L 125.18963118137438 3.5 L 132.18963118137438 0 L 125.18963118137438 -3.5 L 125.18963118137438 -0.5 L 107.59481559068719 -0.5 Z"/><text text-anchor="middle" pointer-events="none" font-size="8px" fill="#000000" x="75.09481559068719" y="3" font-family="sans-serif">AssociatesWith</text></g><g class="relationship" transform="translate(-81.4130061935095 47.891514747548) rotate(231.18917922785818)"><path class="outline" fill="#A5ABB6" stroke="none" d="M 25 0.5 L 25.417907334798088 0.5 L 25.417907334798088 -0.5 L 25 -0.5 Z M 71.41790733479809 0.5 L 71.83581466959618 0.5 L 71.83581466959618 3.5 L 78.83581466959618 0 L 71.83581466959618 -3.5 L 71.83581466959618 -0.5 L 71.41790733479809 -0.5 Z"/><text text-anchor="middle" pointer-events="none" font-size="8px" fill="#000000" x="48.41790733479809" y="3" transform="rotate(180 48.41790733479809 0)" font-family="sans-serif">Associat…</text></g><g class="relationship" transform="translate(-81.4130061935095 47.891514747548) rotate(320.858335749032)"><path class="outline" fill="#A5ABB6" stroke="none" d="M 25 0.5 L 53.35726572574259 0.5 L 53.35726572574259 -0.5 L 25 -0.5 Z M 118.3572657257426 0.5 L 146.7145314514852 0.5 L 146.7145314514852 3.5 L 153.7145314514852 0 L 146.7145314514852 -3.5 L 146.7145314514852 -0.5 L 118.3572657257426 -0.5 Z"/><text text-anchor="middle" pointer-events="none" font-size="8px" fill="#000000" x="85.8572657257426" y="3" font-family="sans-serif">AssociatesWith</text></g><g class="relationship" transform="translate(-81.4130061935095 47.891514747548) rotate(301.7025660113022)"><path class="outline" fill="#A5ABB6" stroke="none" d="M 25 0.5 L 43.0224256993524 0.5 L 43.0224256993524 -0.5 L 25 -0.5 Z M 108.0224256993524 0.5 L 126.0448513987048 0.5 L 126.0448513987048 3.5 L 133.0448513987048 0 L 126.0448513987048 -3.5 L 126.0448513987048 -0.5 L 108.0224256993524 -0.5 Z"/><text text-anchor="middle" pointer-events="none" font-size="8px" fill="#000000" x="75.5224256993524" y="3" font-family="sans-serif">AssociatesWith</text></g><g class="relationship" transform="translate(-81.4130061935095 47.891514747548) rotate(471.05065293558243)"><path class="outline" fill="#A5ABB6" stroke="none" d="M 25 0.5 L 25.25914794860317 0.5 L 25.25914794860317 -0.5 L 25 -0.5 Z M 71.25914794860317 0.5 L 71.51829589720634 0.5 L 71.51829589720634 3.5 L 78.51829589720634 0 L 71.51829589720634 -3.5 L 71.51829589720634 -0.5 L 71.25914794860317 -0.5 Z"/><text text-anchor="middle" pointer-events="none" font-size="8px" fill="#000000" x="48.25914794860317" y="3" transform="rotate(180 48.25914794860317 0)" font-family="sans-serif">Associat…</text></g><g class="relationship" transform="translate(-81.4130061935095 47.891514747548) rotate(201.41453928103084)"><path class="outline" fill="#A5ABB6" stroke="none" d="M 25 0.5 L 26.191655819299594 0.5 L 26.191655819299594 -0.5 L 25 -0.5 Z M 26.191655819299594 0.5 L 27.38331163859919 0.5 L 27.38331163859919 3.5 L 34.38331163859919 0 L 27.38331163859919 -3.5 L 27.38331163859919 -0.5 L 26.191655819299594 -0.5 Z"/><text text-anchor="middle" pointer-events="none" font-size="8px" fill="#000000" x="26.191655819299594" y="3" transform="rotate(180 26.191655819299594 0)" font-family="sans-serif"/></g><g class="relationship" transform="translate(-81.4130061935095 47.891514747548) rotate(399.8962528113411)"><path class="outline" fill="#A5ABB6" stroke="none" d="M 25 0.5 L 42.674597600017805 0.5 L 42.674597600017805 -0.5 L 25 -0.5 Z M 107.6745976000178 0.5 L 125.34919520003561 0.5 L 125.34919520003561 3.5 L 132.3491952000356 0 L 125.34919520003561 -3.5 L 125.34919520003561 -0.5 L 107.6745976000178 -0.5 Z"/><text text-anchor="middle" pointer-events="none" font-size="8px" fill="#000000" x="75.1745976000178" y="3" font-family="sans-serif">AssociatesWith</text></g><g class="relationship" transform="translate(-81.4130061935095 47.891514747548) rotate(410.99949023565785)"><path class="outline" fill="#A5ABB6" stroke="none" d="M 25 0.5 L 66.92861201864108 0.5 L 66.92861201864108 -0.5 L 25 -0.5 Z M 131.92861201864108 0.5 L 173.85722403728215 0.5 L 173.85722403728215 3.5 L 180.85722403728215 0 L 173.85722403728215 -3.5 L 173.85722403728215 -0.5 L 131.92861201864108 -0.5 Z"/><text text-anchor="middle" pointer-events="none" font-size="8px" fill="#000000" x="99.42861201864108" y="3" font-family="sans-serif">AssociatesWith</text></g><g class="relationship" transform="translate(-81.4130061935095 47.891514747548) rotate(501.1465062964514)"><path class="outline" fill="#A5ABB6" stroke="none" d="M 25 0.5 L 26.635086716149438 0.5 L 26.635086716149438 -0.5 L 25 -0.5 Z M 26.635086716149438 0.5 L 28.270173432298876 0.5 L 28.270173432298876 3.5 L 35.270173432298876 0 L 28.270173432298876 -3.5 L 28.270173432298876 -0.5 L 26.635086716149438 -0.5 Z"/><text text-anchor="middle" pointer-events="none" font-size="8px" fill="#000000" x="26.635086716149438" y="3" transform="rotate(180 26.635086716149438 0)" font-family="sans-serif"/></g><g class="relationship" transform="translate(-81.4130061935095 47.891514747548) rotate(530.919953906937)"><path class="outline" fill="#A5ABB6" stroke="none" d="M 25 0.5 L 26.265932447679788 0.5 L 26.265932447679788 -0.5 L 25 -0.5 Z M 69.26593244767979 0.5 L 70.53186489535958 0.5 L 70.53186489535958 3.5 L 77.53186489535958 0 L 70.53186489535958 -3.5 L 70.53186489535958 -0.5 L 69.26593244767979 -0.5 Z"/><text text-anchor="middle" pointer-events="none" font-size="8px" fill="#000000" x="47.76593244767979" y="3" transform="rotate(180 47.76593244767979 0)" font-family="sans-serif">Associa…</text></g><g class="relationship" transform="translate(-81.4130061935095 47.891514747548) rotate(290.55673641707745)"><path class="outline" fill="#A5ABB6" stroke="none" d="M 25 0.5 L 25.67070333699108 0.5 L 25.67070333699108 -0.5 L 25 -0.5 Z M 71.67070333699108 0.5 L 72.34140667398216 0.5 L 72.34140667398216 3.5 L 79.34140667398216 0 L 72.34140667398216 -3.5 L 72.34140667398216 -0.5 L 71.67070333699108 -0.5 Z"/><text text-anchor="middle" pointer-events="none" font-size="8px" fill="#000000" x="48.67070333699108" y="3" font-family="sans-serif">Associat…</text></g><g class="relationship" transform="translate(-81.4130061935095 47.891514747548) rotate(361.8440615937039)"><path class="outline" fill="#A5ABB6" stroke="none" d="M 25 0.5 L 42.94682592076899 0.5 L 42.94682592076899 -0.5 L 25 -0.5 Z M 107.94682592076899 0.5 L 125.89365184153797 0.5 L 125.89365184153797 3.5 L 132.89365184153797 0 L 125.89365184153797 -3.5 L 125.89365184153797 -0.5 L 107.94682592076899 -0.5 Z"/><text text-anchor="middle" pointer-events="none" font-size="8px" fill="#000000" x="75.44682592076899" y="3" font-family="sans-serif">AssociatesWith</text></g><g class="relationship" transform="translate(-16.74453810558484 127.10166076148364) rotate(200.35291143504645)"><path class="outline" fill="#A5ABB6" stroke="none" d="M 25 0.5 L 28.51781896350262 0.5 L 28.51781896350262 -0.5 L 25 -0.5 Z M 83.51781896350262 0.5 L 87.03563792700524 0.5 L 87.03563792700524 3.5 L 94.03563792700524 0 L 87.03563792700524 -3.5 L 87.03563792700524 -0.5 L 83.51781896350262 -0.5 Z"/><text text-anchor="middle" pointer-events="none" font-size="8px" fill="#000000" x="56.01781896350262" y="3" transform="rotate(180 56.01781896350262 0)" font-family="sans-serif">Associates…</text></g><g class="relationship" transform="translate(-16.74453810558484 127.10166076148364) rotate(340.4767289458248)"><path class="outline" fill="#A5ABB6" stroke="none" d="M 25 0.5 L 42.95981207307524 0.5 L 42.95981207307524 -0.5 L 25 -0.5 Z M 107.95981207307524 0.5 L 125.91962414615048 0.5 L 125.91962414615048 3.5 L 132.91962414615048 0 L 125.91962414615048 -3.5 L 125.91962414615048 -0.5 L 107.95981207307524 -0.5 Z"/><text text-anchor="middle" pointer-events="none" font-size="8px" fill="#000000" x="75.45981207307524" y="3" font-family="sans-serif">AssociatesWith</text></g><g class="relationship" transform="translate(-16.74453810558484 127.10166076148364) rotate(291.05979078181053)"><path class="outline" fill="#A5ABB6" stroke="none" d="M 25 0.5 L 66.88291755194989 0.5 L 66.88291755194989 -0.5 L 25 -0.5 Z M 131.8829175519499 0.5 L 173.76583510389978 0.5 L 173.76583510389978 3.5 L 180.76583510389978 0 L 173.76583510389978 -3.5 L 173.76583510389978 -0.5 L 131.8829175519499 -0.5 Z"/><text text-anchor="middle" pointer-events="none" font-size="8px" fill="#000000" x="99.38291755194989" y="3" font-family="sans-serif">AssociatesWith</text></g><g class="relationship" transform="translate(-16.74453810558484 127.10166076148364) rotate(441.39361839344)"><path class="outline" fill="#A5ABB6" stroke="none" d="M 25 0.5 L 26.656688219987792 0.5 L 26.656688219987792 -0.5 L 25 -0.5 Z M 26.656688219987792 0.5 L 28.313376439975585 0.5 L 28.313376439975585 3.5 L 35.313376439975585 0 L 28.313376439975585 -3.5 L 28.313376439975585 -0.5 L 26.656688219987792 -0.5 Z"/><text text-anchor="middle" pointer-events="none" font-size="8px" fill="#000000" x="26.656688219987792" y="3" font-family="sans-serif"/></g><g class="relationship" transform="translate(-16.74453810558484 127.10166076148364) rotate(381.2851294080817)"><path class="outline" fill="#A5ABB6" stroke="none" d="M 25 0.5 L 28.592050652398136 0.5 L 28.592050652398136 -0.5 L 25 -0.5 Z M 83.59205065239814 0.5 L 87.18410130479627 0.5 L 87.18410130479627 3.5 L 94.18410130479627 0 L 87.18410130479627 -3.5 L 87.18410130479627 -0.5 L 83.59205065239814 -0.5 Z"/><text text-anchor="middle" pointer-events="none" font-size="8px" fill="#000000" x="56.092050652398136" y="3" font-family="sans-serif">Associates…</text></g><g class="relationship" transform="translate(-16.74453810558484 127.10166076148364) rotate(321.4850801186325)"><path class="outline" fill="#A5ABB6" stroke="none" d="M 25 0.5 L 28.52066270788618 0.5 L 28.52066270788618 -0.5 L 25 -0.5 Z M 83.52066270788617 0.5 L 87.04132541577236 0.5 L 87.04132541577236 3.5 L 94.04132541577236 0 L 87.04132541577236 -3.5 L 87.04132541577236 -0.5 L 83.52066270788617 -0.5 Z"/><text text-anchor="middle" pointer-events="none" font-size="8px" fill="#000000" x="56.02066270788618" y="3" font-family="sans-serif">Associates…</text></g><g class="relationship" transform="translate(-16.74453810558484 127.10166076148364) rotate(260.9964730168033)"><path class="outline" fill="#A5ABB6" stroke="none" d="M 25 0.5 L 53.557264886057254 0.5 L 53.557264886057254 -0.5 L 25 -0.5 Z M 118.55726488605725 0.5 L 147.1145297721145 0.5 L 147.1145297721145 3.5 L 154.1145297721145 0 L 147.1145297721145 -3.5 L 147.1145297721145 -0.5 L 118.55726488605725 -0.5 Z"/><text text-anchor="middle" pointer-events="none" font-size="8px" fill="#000000" x="86.05726488605725" y="3" transform="rotate(180 86.05726488605725 0)" font-family="sans-serif">AssociatesWith</text></g><g class="relationship" transform="translate(-16.74453810558484 127.10166076148364) rotate(500.3658169319777)"><path class="outline" fill="#A5ABB6" stroke="none" d="M 25 0.5 L 26.744290910815664 0.5 L 26.744290910815664 -0.5 L 25 -0.5 Z M 26.744290910815664 0.5 L 28.48858182163133 0.5 L 28.48858182163133 3.5 L 35.48858182163133 0 L 28.48858182163133 -3.5 L 28.48858182163133 -0.5 L 26.744290910815664 -0.5 Z"/><text text-anchor="middle" pointer-events="none" font-size="8px" fill="#000000" x="26.744290910815664" y="3" transform="rotate(180 26.744290910815664 0)" font-family="sans-serif"/></g><g class="relationship" transform="translate(-16.74453810558484 127.10166076148364) rotate(411.2247789354326)"><path class="outline" fill="#A5ABB6" stroke="none" d="M 25 0.5 L 25.301495298235764 0.5 L 25.301495298235764 -0.5 L 25 -0.5 Z M 71.30149529823576 0.5 L 71.60299059647153 0.5 L 71.60299059647153 3.5 L 78.60299059647153 0 L 71.60299059647153 -3.5 L 71.60299059647153 -0.5 L 71.30149529823576 -0.5 Z"/><text text-anchor="middle" pointer-events="none" font-size="8px" fill="#000000" x="48.301495298235764" y="3" font-family="sans-serif">Associat…</text></g><g class="relationship" transform="translate(-16.74453810558484 127.10166076148364) rotate(321.2601879465507)"><path class="outline" fill="#A5ABB6" stroke="none" d="M 25 0.5 L 53.40327551232453 0.5 L 53.40327551232453 -0.5 L 25 -0.5 Z M 118.40327551232453 0.5 L 146.80655102464905 0.5 L 146.80655102464905 3.5 L 153.80655102464905 0 L 146.80655102464905 -3.5 L 146.80655102464905 -0.5 L 118.40327551232453 -0.5 Z"/><text text-anchor="middle" pointer-events="none" font-size="8px" fill="#000000" x="85.90327551232453" y="3" font-family="sans-serif">AssociatesWith</text></g><g class="relationship" transform="translate(-16.74453810558484 127.10166076148364) rotate(220.06719616989545)"><path class="outline" fill="#A5ABB6" stroke="none" d="M 25 0.5 L 42.37038013943534 0.5 L 42.37038013943534 -0.5 L 25 -0.5 Z M 107.37038013943534 0.5 L 124.74076027887068 0.5 L 124.74076027887068 3.5 L 131.74076027887068 0 L 124.74076027887068 -3.5 L 124.74076027887068 -0.5 L 107.37038013943534 -0.5 Z"/><text text-anchor="middle" pointer-events="none" font-size="8px" fill="#000000" x="74.87038013943534" y="3" transform="rotate(180 74.87038013943534 0)" font-family="sans-serif">AssociatesWith</text></g><g class="relationship" transform="translate(-16.74453810558484 127.10166076148364) rotate(200.80114137742572)"><path class="outline" fill="#A5ABB6" stroke="none" d="M 25 0.5 L 52.7420768469573 0.5 L 52.7420768469573 -0.5 L 25 -0.5 Z M 117.7420768469573 0.5 L 145.4841536939146 0.5 L 145.4841536939146 3.5 L 152.4841536939146 0 L 145.4841536939146 -3.5 L 145.4841536939146 -0.5 L 117.7420768469573 -0.5 Z"/><text text-anchor="middle" pointer-events="none" font-size="8px" fill="#000000" x="85.2420768469573" y="3" transform="rotate(180 85.2420768469573 0)" font-family="sans-serif">AssociatesWith</text></g><g class="relationship" transform="translate(-16.74453810558484 127.10166076148364) rotate(362.244274684664)"><path class="outline" fill="#A5ABB6" stroke="none" d="M 25 0.5 L 43.206870598994 0.5 L 43.206870598994 -0.5 L 25 -0.5 Z M 108.206870598994 0.5 L 126.413741197988 0.5 L 126.413741197988 3.5 L 133.413741197988 0 L 126.413741197988 -3.5 L 126.413741197988 -0.5 L 108.206870598994 -0.5 Z"/><text text-anchor="middle" pointer-events="none" font-size="8px" fill="#000000" x="75.706870598994" y="3" font-family="sans-serif">AssociatesWith</text></g><g class="relationship" transform="translate(-16.74453810558484 127.10166076148364) rotate(241.911401674353)"><path class="outline" fill="#A5ABB6" stroke="none" d="M 25 0.5 L 42.79433719497159 0.5 L 42.79433719497159 -0.5 L 25 -0.5 Z M 107.79433719497159 0.5 L 125.58867438994318 0.5 L 125.58867438994318 3.5 L 132.58867438994318 0 L 125.58867438994318 -3.5 L 125.58867438994318 -0.5 L 107.79433719497159 -0.5 Z"/><text text-anchor="middle" pointer-events="none" font-size="8px" fill="#000000" x="75.29433719497159" y="3" transform="rotate(180 75.29433719497159 0)" font-family="sans-serif">AssociatesWith</text></g><g class="relationship" transform="translate(-16.74453810558484 127.10166076148364) rotate(351.3782371521246)"><path class="outline" fill="#A5ABB6" stroke="none" d="M 25 0.5 L 25.23989796972038 0.5 L 25.23989796972038 -0.5 L 25 -0.5 Z M 71.23989796972037 0.5 L 71.47979593944076 0.5 L 71.47979593944076 3.5 L 78.47979593944076 0 L 71.47979593944076 -3.5 L 71.47979593944076 -0.5 L 71.23989796972037 -0.5 Z"/><text text-anchor="middle" pointer-events="none" font-size="8px" fill="#000000" x="48.23989796972038" y="3" font-family="sans-serif">Associat…</text></g><g class="relationship" transform="translate(-16.74453810558484 127.10166076148364) rotate(381.17583766443977)"><path class="outline" fill="#A5ABB6" stroke="none" d="M 25 0.5 L 26.554896140601826 0.5 L 26.554896140601826 -0.5 L 25 -0.5 Z M 26.554896140601826 0.5 L 28.109792281203653 0.5 L 28.109792281203653 3.5 L 35.10979228120365 0 L 28.109792281203653 -3.5 L 28.109792281203653 -0.5 L 26.554896140601826 -0.5 Z"/><text text-anchor="middle" pointer-events="none" font-size="8px" fill="#000000" x="26.554896140601826" y="3" font-family="sans-serif"/></g><g class="relationship" transform="translate(-16.74453810558484 127.10166076148364) rotate(280.13510567764376)"><path class="outline" fill="#A5ABB6" stroke="none" d="M 25 0.5 L 42.78578385998753 0.5 L 42.78578385998753 -0.5 L 25 -0.5 Z M 107.78578385998753 0.5 L 125.57156771997506 0.5 L 125.57156771997506 3.5 L 132.57156771997506 0 L 125.57156771997506 -3.5 L 125.57156771997506 -0.5 L 107.78578385998753 -0.5 Z"/><text text-anchor="middle" pointer-events="none" font-size="8px" fill="#000000" x="75.28578385998753" y="3" font-family="sans-serif">AssociatesWith</text></g><g class="relationship" transform="translate(-16.74453810558484 127.10166076148364) rotate(307.35107441992534)"><path class="outline" fill="#A5ABB6" stroke="none" d="M 25 0.5 L 71.41764789599009 0.5 L 71.41764789599009 -0.5 L 25 -0.5 Z M 136.4176478959901 0.5 L 182.83529579198017 0.5 L 182.83529579198017 3.5 L 189.83529579198017 0 L 182.83529579198017 -3.5 L 182.83529579198017 -0.5 L 136.4176478959901 -0.5 Z"/><text text-anchor="middle" pointer-events="none" font-size="8px" fill="#000000" x="103.91764789599009" y="3" font-family="sans-serif">AssociatesWith</text></g><g class="relationship" transform="translate(67.01777799562421 -6.144720530437279) rotate(321.13739119395734)"><path class="outline" fill="#A5ABB6" stroke="none" d="M 25 0.5 L 26.409138752647337 0.5 L 26.409138752647337 -0.5 L 25 -0.5 Z M 26.409138752647337 0.5 L 27.818277505294674 0.5 L 27.818277505294674 3.5 L 34.818277505294674 0 L 27.818277505294674 -3.5 L 27.818277505294674 -0.5 L 26.409138752647337 -0.5 Z"/><text text-anchor="middle" pointer-events="none" font-size="8px" fill="#000000" x="26.409138752647337" y="3" font-family="sans-serif"/></g><g class="relationship" transform="translate(67.01777799562421 -6.144720530437279) rotate(182.0961715236577)"><path class="outline" fill="#A5ABB6" stroke="none" d="M 25 0.5 L 43.03328062422945 0.5 L 43.03328062422945 -0.5 L 25 -0.5 Z M 108.03328062422945 0.5 L 126.0665612484589 0.5 L 126.0665612484589 3.5 L 133.0665612484589 0 L 126.0665612484589 -3.5 L 126.0665612484589 -0.5 L 108.03328062422945 -0.5 Z"/><text text-anchor="middle" pointer-events="none" font-size="8px" fill="#000000" x="75.53328062422945" y="3" transform="rotate(180 75.53328062422945 0)" font-family="sans-serif">AssociatesWith</text></g><g class="relationship" transform="translate(67.01777799562421 -6.144720530437279) rotate(230.8931605183201)"><path class="outline" fill="#A5ABB6" stroke="none" d="M 25 0.5 L 25.323037521645347 0.5 L 25.323037521645347 -0.5 L 25 -0.5 Z M 71.32303752164535 0.5 L 71.6460750432907 0.5 L 71.6460750432907 3.5 L 78.6460750432907 0 L 71.6460750432907 -3.5 L 71.6460750432907 -0.5 L 71.32303752164535 -0.5 Z"/><text text-anchor="middle" pointer-events="none" font-size="8px" fill="#000000" x="48.32303752164535" y="3" transform="rotate(180 48.32303752164535 0)" font-family="sans-serif">Associat…</text></g><g class="relationship" transform="translate(67.01777799562421 -6.144720530437279) rotate(260.51293199988174)"><path class="outline" fill="#A5ABB6" stroke="none" d="M 25 0.5 L 26.295274709013757 0.5 L 26.295274709013757 -0.5 L 25 -0.5 Z M 26.295274709013757 0.5 L 27.590549418027514 0.5 L 27.590549418027514 3.5 L 34.590549418027514 0 L 27.590549418027514 -3.5 L 27.590549418027514 -0.5 L 26.295274709013757 -0.5 Z"/><text text-anchor="middle" pointer-events="none" font-size="8px" fill="#000000" x="26.295274709013757" y="3" transform="rotate(180 26.295274709013757 0)" font-family="sans-serif"/></g><g class="relationship" transform="translate(67.01777799562421 -6.144720530437279) rotate(530.9754691713016)"><path class="outline" fill="#A5ABB6" stroke="none" d="M 25 0.5 L 67.13389716353419 0.5 L 67.13389716353419 -0.5 L 25 -0.5 Z M 132.1338971635342 0.5 L 174.26779432706837 0.5 L 174.26779432706837 3.5 L 181.26779432706837 0 L 174.26779432706837 -3.5 L 174.26779432706837 -0.5 L 132.1338971635342 -0.5 Z"/><text text-anchor="middle" pointer-events="none" font-size="8px" fill="#000000" x="99.63389716353419" y="3" transform="rotate(180 99.63389716353419 0)" font-family="sans-serif">AssociatesWith</text></g><g class="relationship" transform="translate(67.01777799562421 -6.144720530437279) rotate(411.0372157217606)"><path class="outline" fill="#A5ABB6" stroke="none" d="M 25 0.5 L 25.246381851991977 0.5 L 25.246381851991977 -0.5 L 25 -0.5 Z M 71.24638185199197 0.5 L 71.49276370398395 0.5 L 71.49276370398395 3.5 L 78.49276370398395 0 L 71.49276370398395 -3.5 L 71.49276370398395 -0.5 L 71.24638185199197 -0.5 Z"/><text text-anchor="middle" pointer-events="none" font-size="8px" fill="#000000" x="48.24638185199198" y="3" font-family="sans-serif">Associat…</text></g><g class="relationship" transform="translate(67.01777799562421 -6.144720530437279) rotate(421.87742480715895)"><path class="outline" fill="#A5ABB6" stroke="none" d="M 25 0.5 L 43.058476936057545 0.5 L 43.058476936057545 -0.5 L 25 -0.5 Z M 108.05847693605755 0.5 L 126.11695387211509 0.5 L 126.11695387211509 3.5 L 133.1169538721151 0 L 126.11695387211509 -3.5 L 126.11695387211509 -0.5 L 108.05847693605755 -0.5 Z"/><text text-anchor="middle" pointer-events="none" font-size="8px" fill="#000000" x="75.55847693605755" y="3" font-family="sans-serif">AssociatesWith</text></g><g class="relationship" transform="translate(67.01777799562421 -6.144720530437279) rotate(441.21068316985355)"><path class="outline" fill="#A5ABB6" stroke="none" d="M 25 0.5 L 53.304376744191146 0.5 L 53.304376744191146 -0.5 L 25 -0.5 Z M 118.30437674419115 0.5 L 146.6087534883823 0.5 L 146.6087534883823 3.5 L 153.6087534883823 0 L 146.6087534883823 -3.5 L 146.6087534883823 -0.5 L 118.30437674419115 -0.5 Z"/><text text-anchor="middle" pointer-events="none" font-size="8px" fill="#000000" x="85.80437674419115" y="3" font-family="sans-serif">AssociatesWith</text></g><g class="relationship" transform="translate(67.01777799562421 -6.144720530437279) rotate(201.33335874290077)"><path class="outline" fill="#A5ABB6" stroke="none" d="M 25 0.5 L 25.00823553959753 0.5 L 25.00823553959753 -0.5 L 25 -0.5 Z M 88.00823553959754 0.5 L 88.01647107919506 0.5 L 88.01647107919506 3.5 L 95.01647107919506 0 L 88.01647107919506 -3.5 L 88.01647107919506 -0.5 L 88.00823553959754 -0.5 Z"/><text text-anchor="middle" pointer-events="none" font-size="8px" fill="#000000" x="56.50823553959753" y="3" transform="rotate(180 56.50823553959753 0)" font-family="sans-serif">AssociatesW…</text></g><g class="relationship" transform="translate(67.01777799562421 -6.144720530437279) rotate(201.31725661571147)"><path class="outline" fill="#A5ABB6" stroke="none" d="M 25 0.5 L 26.57490222194333 0.5 L 26.57490222194333 -0.5 L 25 -0.5 Z M 26.57490222194333 0.5 L 28.14980444388666 0.5 L 28.14980444388666 3.5 L 35.14980444388666 0 L 28.14980444388666 -3.5 L 28.14980444388666 -0.5 L 26.57490222194333 -0.5 Z"/><text text-anchor="middle" pointer-events="none" font-size="8px" fill="#000000" x="26.57490222194333" y="3" transform="rotate(180 26.57490222194333 0)" font-family="sans-serif"/></g><g class="relationship" transform="translate(67.01777799562421 -6.144720530437279) rotate(441.0470382701877)"><path class="outline" fill="#A5ABB6" stroke="none" d="M 25 0.5 L 28.592869752106758 0.5 L 28.592869752106758 -0.5 L 25 -0.5 Z M 83.59286975210676 0.5 L 87.18573950421352 0.5 L 87.18573950421352 3.5 L 94.18573950421352 0 L 87.18573950421352 -3.5 L 87.18573950421352 -0.5 L 83.59286975210676 -0.5 Z"/><text text-anchor="middle" pointer-events="none" font-size="8px" fill="#000000" x="56.09286975210676" y="3" font-family="sans-serif">Associates…</text></g><g class="relationship" transform="translate(67.01777799562421 -6.144720530437279) rotate(460.1389856350426)"><path class="outline" fill="#A5ABB6" stroke="none" d="M 25 0.5 L 42.70911262509074 0.5 L 42.70911262509074 -0.5 L 25 -0.5 Z M 107.70911262509074 0.5 L 125.41822525018148 0.5 L 125.41822525018148 3.5 L 132.41822525018148 0 L 125.41822525018148 -3.5 L 125.41822525018148 -0.5 L 107.70911262509074 -0.5 Z"/><text text-anchor="middle" pointer-events="none" font-size="8px" fill="#000000" x="75.20911262509074" y="3" transform="rotate(180 75.20911262509074 0)" font-family="sans-serif">AssociatesWith</text></g><g class="relationship" transform="translate(67.01777799562421 -6.144720530437279) rotate(487.18300593643147)"><path class="outline" fill="#A5ABB6" stroke="none" d="M 25 0.5 L 71.83799909004613 0.5 L 71.83799909004613 -0.5 L 25 -0.5 Z M 136.83799909004614 0.5 L 183.67599818009225 0.5 L 183.67599818009225 3.5 L 190.67599818009225 0 L 183.67599818009225 -3.5 L 183.67599818009225 -0.5 L 136.83799909004614 -0.5 Z"/><text text-anchor="middle" pointer-events="none" font-size="8px" fill="#000000" x="104.33799909004613" y="3" transform="rotate(180 104.33799909004613 0)" font-family="sans-serif">AssociatesWith</text></g><g class="relationship" transform="translate(20.22804858970339 31.47844040892933) rotate(500.84943058708507)"><path class="outline" fill="#A5ABB6" stroke="none" d="M 25 0.5 L 53.50741646340151 0.5 L 53.50741646340151 -0.5 L 25 -0.5 Z M 118.50741646340151 0.5 L 147.01483292680302 0.5 L 147.01483292680302 3.5 L 154.01483292680302 0 L 147.01483292680302 -3.5 L 147.01483292680302 -0.5 L 118.50741646340151 -0.5 Z"/><text text-anchor="middle" pointer-events="none" font-size="8px" fill="#000000" x="86.00741646340151" y="3" transform="rotate(180 86.00741646340151 0)" font-family="sans-serif">AssociatesWith</text></g><g class="relationship" transform="translate(20.22804858970339 31.47844040892933) rotate(261.0522147532917)"><path class="outline" fill="#A5ABB6" stroke="none" d="M 25 0.5 L 28.751912134394054 0.5 L 28.751912134394054 -0.5 L 25 -0.5 Z M 83.75191213439405 0.5 L 87.50382426878811 0.5 L 87.50382426878811 3.5 L 94.50382426878811 0 L 87.50382426878811 -3.5 L 87.50382426878811 -0.5 L 83.75191213439405 -0.5 Z"/><text text-anchor="middle" pointer-events="none" font-size="8px" fill="#000000" x="56.251912134394054" y="3" transform="rotate(180 56.251912134394054 0)" font-family="sans-serif">Associates…</text></g><g class="relationship" transform="translate(20.22804858970339 31.47844040892933) rotate(380.9581023020227)"><path class="outline" fill="#A5ABB6" stroke="none" d="M 25 0.5 L 28.896402454695455 0.5 L 28.896402454695455 -0.5 L 25 -0.5 Z M 83.89640245469545 0.5 L 87.79280490939091 0.5 L 87.79280490939091 3.5 L 94.79280490939091 0 L 87.79280490939091 -3.5 L 87.79280490939091 -0.5 L 83.89640245469545 -0.5 Z"/><text text-anchor="middle" pointer-events="none" font-size="8px" fill="#000000" x="56.396402454695455" y="3" font-family="sans-serif">Associates…</text></g><g class="relationship" transform="translate(20.22804858970339 31.47844040892933) rotate(421.92502820931884)"><path class="outline" fill="#A5ABB6" stroke="none" d="M 25 0.5 L 42.70511698484104 0.5 L 42.70511698484104 -0.5 L 25 -0.5 Z M 107.70511698484104 0.5 L 125.41023396968208 0.5 L 125.41023396968208 3.5 L 132.41023396968208 0 L 125.41023396968208 -3.5 L 125.41023396968208 -0.5 L 107.70511698484104 -0.5 Z"/><text text-anchor="middle" pointer-events="none" font-size="8px" fill="#000000" x="75.20511698484104" y="3" font-family="sans-serif">AssociatesWith</text></g><g class="relationship" transform="translate(20.22804858970339 31.47844040892933) rotate(441.0086806536558)"><path class="outline" fill="#A5ABB6" stroke="none" d="M 25 0.5 L 53.29375498759738 0.5 L 53.29375498759738 -0.5 L 25 -0.5 Z M 118.29375498759738 0.5 L 146.58750997519476 0.5 L 146.58750997519476 3.5 L 153.58750997519476 0 L 146.58750997519476 -3.5 L 146.58750997519476 -0.5 L 118.29375498759738 -0.5 Z"/><text text-anchor="middle" pointer-events="none" font-size="8px" fill="#000000" x="85.79375498759738" y="3" font-family="sans-serif">AssociatesWith</text></g><g class="relationship" transform="translate(20.22804858970339 31.47844040892933) rotate(361.20108367466656)"><path class="outline" fill="#A5ABB6" stroke="none" d="M 25 0.5 L 45.48948018120552 0.5 L 45.48948018120552 -0.5 L 25 -0.5 Z M 110.48948018120552 0.5 L 130.97896036241104 0.5 L 130.97896036241104 3.5 L 137.97896036241104 0 L 130.97896036241104 -3.5 L 130.97896036241104 -0.5 L 110.48948018120552 -0.5 Z"/><text text-anchor="middle" pointer-events="none" font-size="8px" fill="#000000" x="77.98948018120552" y="3" font-family="sans-serif">AssociatesWith</text></g><g class="relationship" transform="translate(20.22804858970339 31.47844040892933) rotate(271.1834288805653)"><path class="outline" fill="#A5ABB6" stroke="none" d="M 25 0.5 L 51.05809592846998 0.5 L 51.05809592846998 -0.5 L 25 -0.5 Z M 116.05809592846998 0.5 L 142.11619185693996 0.5 L 142.11619185693996 3.5 L 149.11619185693996 0 L 142.11619185693996 -3.5 L 142.11619185693996 -0.5 L 116.05809592846998 -0.5 Z"/><text text-anchor="middle" pointer-events="none" font-size="8px" fill="#000000" x="83.55809592846998" y="3" font-family="sans-serif">AssociatesWith</text></g><g class="relationship" transform="translate(20.22804858970339 31.47844040892933) rotate(201.32726980707434)"><path class="outline" fill="#A5ABB6" stroke="none" d="M 25 0.5 L 28.671972080869295 0.5 L 28.671972080869295 -0.5 L 25 -0.5 Z M 83.6719720808693 0.5 L 87.34394416173859 0.5 L 87.34394416173859 3.5 L 94.34394416173859 0 L 87.34394416173859 -3.5 L 87.34394416173859 -0.5 L 83.6719720808693 -0.5 Z"/><text text-anchor="middle" pointer-events="none" font-size="8px" fill="#000000" x="56.171972080869295" y="3" transform="rotate(180 56.171972080869295 0)" font-family="sans-serif">Associates…</text></g><g class="relationship" transform="translate(20.22804858970339 31.47844040892933) rotate(181.92291011269663)"><path class="outline" fill="#A5ABB6" stroke="none" d="M 25 0.5 L 42.5065748920387 0.5 L 42.5065748920387 -0.5 L 25 -0.5 Z M 107.5065748920387 0.5 L 125.0131497840774 0.5 L 125.0131497840774 3.5 L 132.0131497840774 0 L 125.0131497840774 -3.5 L 125.0131497840774 -0.5 L 107.5065748920387 -0.5 Z"/><text text-anchor="middle" pointer-events="none" font-size="8px" fill="#000000" x="75.0065748920387" y="3" transform="rotate(180 75.0065748920387 0)" font-family="sans-serif">AssociatesWith</text></g><g class="relationship" transform="translate(20.22804858970339 31.47844040892933) rotate(380.9395537343679)"><path class="outline" fill="#A5ABB6" stroke="none" d="M 25 0.5 L 26.571387899196164 0.5 L 26.571387899196164 -0.5 L 25 -0.5 Z M 26.571387899196164 0.5 L 28.14277579839233 0.5 L 28.14277579839233 3.5 L 35.14277579839233 0 L 28.14277579839233 -3.5 L 28.14277579839233 -0.5 L 26.571387899196164 -0.5 Z"/><text text-anchor="middle" pointer-events="none" font-size="8px" fill="#000000" x="26.571387899196164" y="3" font-family="sans-serif"/></g><g class="relationship" transform="translate(20.22804858970339 31.47844040892933) rotate(519.9506505360251)"><path class="outline" fill="#A5ABB6" stroke="none" d="M 25 0.5 L 43.08078297628546 0.5 L 43.08078297628546 -0.5 L 25 -0.5 Z M 108.08078297628546 0.5 L 126.16156595257092 0.5 L 126.16156595257092 3.5 L 133.16156595257092 0 L 126.16156595257092 -3.5 L 126.16156595257092 -0.5 L 108.08078297628546 -0.5 Z"/><text text-anchor="middle" pointer-events="none" font-size="8px" fill="#000000" x="75.58078297628546" y="3" transform="rotate(180 75.58078297628546 0)" font-family="sans-serif">AssociatesWith</text></g><g class="relationship" transform="translate(20.22804858970339 31.47844040892933) rotate(231.35065789822897)"><path class="outline" fill="#A5ABB6" stroke="none" d="M 25 0.5 L 25.53979899611594 0.5 L 25.53979899611594 -0.5 L 25 -0.5 Z M 71.53979899611593 0.5 L 72.07959799223188 0.5 L 72.07959799223188 3.5 L 79.07959799223188 0 L 72.07959799223188 -3.5 L 72.07959799223188 -0.5 L 71.53979899611593 -0.5 Z"/><text text-anchor="middle" pointer-events="none" font-size="8px" fill="#000000" x="48.53979899611594" y="3" transform="rotate(180 48.53979899611594 0)" font-family="sans-serif">Associat…</text></g><g class="relationship" transform="translate(20.22804858970339 31.47844040892933) rotate(530.8733901065393)"><path class="outline" fill="#A5ABB6" stroke="none" d="M 25 0.5 L 66.7447608899345 0.5 L 66.7447608899345 -0.5 L 25 -0.5 Z M 131.7447608899345 0.5 L 173.489521779869 0.5 L 173.489521779869 3.5 L 180.489521779869 0 L 173.489521779869 -3.5 L 173.489521779869 -0.5 L 131.7447608899345 -0.5 Z"/><text text-anchor="middle" pointer-events="none" font-size="8px" fill="#000000" x="99.2447608899345" y="3" transform="rotate(180 99.2447608899345 0)" font-family="sans-serif">AssociatesWith</text></g><g class="relationship" transform="translate(20.22804858970339 31.47844040892933) rotate(321.1675417018974)"><path class="outline" fill="#A5ABB6" stroke="none" d="M 25 0.5 L 28.929044779987954 0.5 L 28.929044779987954 -0.5 L 25 -0.5 Z M 83.92904477998795 0.5 L 87.85808955997591 0.5 L 87.85808955997591 3.5 L 94.85808955997591 0 L 87.85808955997591 -3.5 L 87.85808955997591 -0.5 L 83.92904477998795 -0.5 Z"/><text text-anchor="middle" pointer-events="none" font-size="8px" fill="#000000" x="56.429044779987954" y="3" font-family="sans-serif">Associates…</text></g><g class="relationship" transform="translate(20.22804858970339 31.47844040892933) rotate(481.90608362287213)"><path class="outline" fill="#A5ABB6" stroke="none" d="M 25 0.5 L 43.046666729898945 0.5 L 43.046666729898945 -0.5 L 25 -0.5 Z M 108.04666672989894 0.5 L 126.09333345979789 0.5 L 126.09333345979789 3.5 L 133.0933334597979 0 L 126.09333345979789 -3.5 L 126.09333345979789 -0.5 L 108.04666672989894 -0.5 Z"/><text text-anchor="middle" pointer-events="none" font-size="8px" fill="#000000" x="75.54666672989894" y="3" transform="rotate(180 75.54666672989894 0)" font-family="sans-serif">AssociatesWith</text></g><g class="relationship" transform="translate(20.22804858970339 31.47844040892933) rotate(290.98120934248135)"><path class="outline" fill="#A5ABB6" stroke="none" d="M 25 0.5 L 25.121985847388125 0.5 L 25.121985847388125 -0.5 L 25 -0.5 Z M 71.12198584738812 0.5 L 71.24397169477625 0.5 L 71.24397169477625 3.5 L 78.24397169477625 0 L 71.24397169477625 -3.5 L 71.24397169477625 -0.5 L 71.12198584738812 -0.5 Z"/><text text-anchor="middle" pointer-events="none" font-size="8px" fill="#000000" x="48.121985847388125" y="3" font-family="sans-serif">Associat…</text></g><g class="relationship" transform="translate(20.22804858970339 31.47844040892933) rotate(460.2041960189379)"><path class="outline" fill="#A5ABB6" stroke="none" d="M 25 0.5 L 42.876341384603435 0.5 L 42.876341384603435 -0.5 L 25 -0.5 Z M 107.87634138460344 0.5 L 125.75268276920687 0.5 L 125.75268276920687 3.5 L 132.75268276920687 0 L 125.75268276920687 -3.5 L 125.75268276920687 -0.5 L 107.87634138460344 -0.5 Z"/><text text-anchor="middle" pointer-events="none" font-size="8px" fill="#000000" x="75.37634138460344" y="3" transform="rotate(180 75.37634138460344 0)" font-family="sans-serif">AssociatesWith</text></g><g class="relationship" transform="translate(20.22804858970339 31.47844040892933) rotate(350.9795706275746)"><path class="outline" fill="#A5ABB6" stroke="none" d="M 25 0.5 L 25.38962821689865 0.5 L 25.38962821689865 -0.5 L 25 -0.5 Z M 71.38962821689864 0.5 L 71.7792564337973 0.5 L 71.7792564337973 3.5 L 78.7792564337973 0 L 71.7792564337973 -3.5 L 71.7792564337973 -0.5 L 71.38962821689864 -0.5 Z"/><text text-anchor="middle" pointer-events="none" font-size="8px" fill="#000000" x="48.38962821689865" y="3" font-family="sans-serif">Associat…</text></g><g class="relationship" transform="translate(20.22804858970339 31.47844040892933) rotate(440.7648135038669)"><path class="outline" fill="#A5ABB6" stroke="none" d="M 25 0.5 L 28.438833894345272 0.5 L 28.438833894345272 -0.5 L 25 -0.5 Z M 83.43883389434527 0.5 L 86.87766778869054 0.5 L 86.87766778869054 3.5 L 93.87766778869054 0 L 86.87766778869054 -3.5 L 86.87766778869054 -0.5 L 83.43883389434527 -0.5 Z"/><text text-anchor="middle" pointer-events="none" font-size="8px" fill="#000000" x="55.93883389434527" y="3" font-family="sans-serif">Associates…</text></g><g class="relationship" transform="translate(20.22804858970339 31.47844040892933) rotate(410.79942844946356)"><path class="outline" fill="#A5ABB6" stroke="none" d="M 25 0.5 L 25.188297959093752 0.5 L 25.188297959093752 -0.5 L 25 -0.5 Z M 71.18829795909375 0.5 L 71.3765959181875 0.5 L 71.3765959181875 3.5 L 78.3765959181875 0 L 71.3765959181875 -3.5 L 71.3765959181875 -0.5 L 71.18829795909375 -0.5 Z"/><text text-anchor="middle" pointer-events="none" font-size="8px" fill="#000000" x="48.18829795909375" y="3" font-family="sans-serif">Associat…</text></g></g><g class="layer nodes"><g class="node" transform="translate(113.59544673504698,-43.67800040977959)"><circle class="outline" cx="0" cy="0" r="25" fill="#F16667" stroke="#eb2728" stroke-width="2px"/><text text-anchor="middle" pointer-events="none" font-family="sans-serif" dy="1.5625" font-size="25" fill="#FFFFFF"/><text text-anchor="middle" pointer-events="none" font-family="sans-serif" dy="1.5625" font-size="25" fill="#FFFFFF"/><text text-anchor="middle" pointer-events="none" y="0" font-size="10px" fill="#FFFFFF" font-family="sans-serif"> Lung</text><text text-anchor="middle" pointer-events="none" y="10" font-size="10px" fill="#FFFFFF" font-family="sans-serif"> diseases</text></g><g class="node" transform="translate(29.706542804244794,89.5504884429662)"><circle class="outline" cx="0" cy="0" r="25" fill="#D9C8AE" stroke="#c0a378" stroke-width="2px"/><text text-anchor="middle" pointer-events="none" font-family="sans-serif" dy="1.5625" font-size="25" fill="#604A0E"/><text text-anchor="middle" pointer-events="none" y="5" font-size="10px" fill="#604A0E" font-family="sans-serif"> TGFB1</text></g><g class="node" transform="translate(39.306413776228666,148.81520310795668)"><circle class="outline" cx="0" cy="0" r="25" fill="#F16667" stroke="#eb2728" stroke-width="2px"/><text text-anchor="middle" pointer-events="none" font-family="sans-serif" dy="1.5625" font-size="25" fill="#FFFFFF"/><text text-anchor="middle" pointer-events="none" y="5" font-size="10px" fill="#FFFFFF" font-family="sans-serif"> Asthma</text></g><g class="node" transform="translate(76.39887399730031,52.972436169721455)"><circle class="outline" cx="0" cy="0" r="25" fill="#F16667" stroke="#eb2728" stroke-width="2px"/><text text-anchor="middle" pointer-events="none" font-family="sans-serif" dy="1.5625" font-size="25" fill="#FFFFFF"/><text text-anchor="middle" pointer-events="none" y="5" font-size="10px" fill="#FFFFFF" font-family="sans-serif"> Myocar…</text></g><g class="node" transform="translate(-63.328779838831956,165.68633327442052)"><circle class="outline" cx="0" cy="0" r="25" fill="#F16667" stroke="#eb2728" stroke-width="2px"/><text text-anchor="middle" pointer-events="none" font-family="sans-serif" dy="1.5625" font-size="25" fill="#FFFFFF"/><text text-anchor="middle" pointer-events="none" font-family="sans-serif" dy="1.5625" font-size="25" fill="#FFFFFF"/><text text-anchor="middle" pointer-events="none" y="0" font-size="10px" fill="#FFFFFF" font-family="sans-serif"> Chronic</text><text text-anchor="middle" pointer-events="none" y="10" font-size="10px" fill="#FFFFFF" font-family="sans-serif"> Obstru…</text></g><g class="node" transform="translate(57.19576621794878,-64.92023979298047)"><circle class="outline" cx="0" cy="0" r="25" fill="#F16667" stroke="#eb2728" stroke-width="2px"/><text text-anchor="middle" pointer-events="none" font-family="sans-serif" dy="1.5625" font-size="25" fill="#FFFFFF"/><text text-anchor="middle" pointer-events="none" y="5" font-size="10px" fill="#FFFFFF" font-family="sans-serif"> Diabetes</text></g><g class="node" transform="translate(132.09562919441578,74.32655025881148)"><circle class="outline" cx="0" cy="0" r="25" fill="#F16667" stroke="#eb2728" stroke-width="2px"/><text text-anchor="middle" pointer-events="none" font-family="sans-serif" dy="1.5625" font-size="25" fill="#FFFFFF"/><text text-anchor="middle" pointer-events="none" y="5" font-size="10px" fill="#FFFFFF" font-family="sans-serif"> Pulmon…</text></g><g class="node" transform="translate(170.86145903558872,236.5720649060311)"><circle class="outline" cx="0" cy="0" r="25" fill="#F16667" stroke="#eb2728" stroke-width="2px"/><text text-anchor="middle" pointer-events="none" font-family="sans-serif" dy="1.5625" font-size="25" fill="#FFFFFF"/><text text-anchor="middle" pointer-events="none" y="5" font-size="10px" fill="#FFFFFF" font-family="sans-serif"> Osteop…</text></g><g class="node" transform="translate(279.5971202685762,53.83270767337763)"><circle class="outline" cx="0" cy="0" r="25" fill="#F16667" stroke="#eb2728" stroke-width="2px"/><text text-anchor="middle" pointer-events="none" font-family="sans-serif" dy="1.5625" font-size="25" fill="#FFFFFF"/><text text-anchor="middle" pointer-events="none" y="5" font-size="10px" fill="#FFFFFF" font-family="sans-serif"> Camur…</text></g><g class="node" transform="translate(-182.6600265739986,64.0724968868711)"><circle class="outline" cx="0" cy="0" r="25" fill="#F16667" stroke="#eb2728" stroke-width="2px"/><text text-anchor="middle" pointer-events="none" font-family="sans-serif" dy="1.5625" font-size="25" fill="#FFFFFF"/><text text-anchor="middle" pointer-events="none" font-family="sans-serif" dy="1.5625" font-size="25" fill="#FFFFFF"/><text text-anchor="middle" pointer-events="none" font-family="sans-serif" dy="1.5625" font-size="25" fill="#FFFFFF"/><text text-anchor="middle" pointer-events="none" y="-5" font-size="10px" fill="#FFFFFF" font-family="sans-serif"> Kidney</text><text text-anchor="middle" pointer-events="none" y="5" font-size="10px" fill="#FFFFFF" font-family="sans-serif"> Failure,</text><text text-anchor="middle" pointer-events="none" y="15" font-size="10px" fill="#FFFFFF" font-family="sans-serif"> Chron…</text></g><g class="node" transform="translate(1.6411048515920184,-86.57108113750334)"><circle class="outline" cx="0" cy="0" r="25" fill="#F16667" stroke="#eb2728" stroke-width="2px"/><text text-anchor="middle" pointer-events="none" font-family="sans-serif" dy="1.5625" font-size="25" fill="#FFFFFF"/><text text-anchor="middle" pointer-events="none" y="5" font-size="10px" fill="#FFFFFF" font-family="sans-serif"> Hypert…</text></g><g class="node" transform="translate(48.13856589546534,207.87147242228593)"><circle class="outline" cx="0" cy="0" r="25" fill="#F16667" stroke="#eb2728" stroke-width="2px"/><text text-anchor="middle" pointer-events="none" font-family="sans-serif" dy="1.5625" font-size="25" fill="#FFFFFF"/><text text-anchor="middle" pointer-events="none" font-family="sans-serif" dy="1.5625" font-size="25" fill="#FFFFFF"/><text text-anchor="middle" pointer-events="none" y="0" font-size="10px" fill="#FFFFFF" font-family="sans-serif"> Cystic</text><text text-anchor="middle" pointer-events="none" y="10" font-size="10px" fill="#FFFFFF" font-family="sans-serif"> Fibrosis</text></g><g class="node" transform="translate(94.30947630731004,170.36661062407427)"><circle class="outline" cx="0" cy="0" r="25" fill="#F16667" stroke="#eb2728" stroke-width="2px"/><text text-anchor="middle" pointer-events="none" font-family="sans-serif" dy="1.5625" font-size="25" fill="#FFFFFF"/><text text-anchor="middle" pointer-events="none" y="5" font-size="10px" fill="#FFFFFF" font-family="sans-serif"> Pneum…</text></g><g class="node" transform="translate(-35.212631392938114,10.341157418728741)"><circle class="outline" cx="0" cy="0" r="25" fill="#D9C8AE" stroke="#c0a378" stroke-width="2px"/><text text-anchor="middle" pointer-events="none" font-family="sans-serif" dy="1.5625" font-size="25" fill="#604A0E"/><text text-anchor="middle" pointer-events="none" y="5" font-size="10px" fill="#604A0E" font-family="sans-serif"> CCL2</text></g><g class="node" transform="translate(-53.57372773423264,224.98847485344976)"><circle class="outline" cx="0" cy="0" r="25" fill="#F16667" stroke="#eb2728" stroke-width="2px"/><text text-anchor="middle" pointer-events="none" font-family="sans-serif" dy="1.5625" font-size="25" fill="#FFFFFF"/><text text-anchor="middle" pointer-events="none" y="5" font-size="10px" fill="#FFFFFF" font-family="sans-serif"> Pancre…</text></g><g class="node" transform="translate(-146.49220526169145,-33.01938845308788)"><circle class="outline" cx="0" cy="0" r="25" fill="#F16667" stroke="#eb2728" stroke-width="2px"/><text text-anchor="middle" pointer-events="none" font-family="sans-serif" dy="1.5625" font-size="25" fill="#FFFFFF"/><text text-anchor="middle" pointer-events="none" y="5" font-size="10px" fill="#FFFFFF" font-family="sans-serif"> Myocar…</text></g><g class="node" transform="translate(-7.7189145260287795,186.73589167452857)"><circle class="outline" cx="0" cy="0" r="25" fill="#F16667" stroke="#eb2728" stroke-width="2px"/><text text-anchor="middle" pointer-events="none" font-family="sans-serif" dy="1.5625" font-size="25" fill="#FFFFFF"/><text text-anchor="middle" pointer-events="none" y="5" font-size="10px" fill="#FFFFFF" font-family="sans-serif"> Coronary</text></g><g class="node" transform="translate(-44.77511378916491,-49.805946769489374)"><circle class="outline" cx="0" cy="0" r="25" fill="#F16667" stroke="#eb2728" stroke-width="2px"/><text text-anchor="middle" pointer-events="none" font-family="sans-serif" dy="1.5625" font-size="25" fill="#FFFFFF"/><text text-anchor="middle" pointer-events="none" y="5" font-size="10px" fill="#FFFFFF" font-family="sans-serif"> Pneum…</text></g><g class="node" transform="translate(-71.70350109833083,106.69742744206333)"><circle class="outline" cx="0" cy="0" r="25" fill="#D9C8AE" stroke="#c0a378" stroke-width="2px"/><text text-anchor="middle" pointer-events="none" font-family="sans-serif" dy="1.5625" font-size="25" fill="#604A0E"/><text text-anchor="middle" pointer-events="none" y="5" font-size="10px" fill="#604A0E" font-family="sans-serif"> CCL11</text></g><g class="node" transform="translate(-128.3485605876337,85.70087257435583)"><circle class="outline" cx="0" cy="0" r="25" fill="#F16667" stroke="#eb2728" stroke-width="2px"/><text text-anchor="middle" pointer-events="none" font-family="sans-serif" dy="1.5625" font-size="25" fill="#FFFFFF"/><text text-anchor="middle" pointer-events="none" y="5" font-size="10px" fill="#FFFFFF" font-family="sans-serif"> Obesity</text></g><g class="node" transform="translate(-25.742681539507586,68.91478792680715)"><circle class="outline" cx="0" cy="0" r="25" fill="#D9C8AE" stroke="#c0a378" stroke-width="2px"/><text text-anchor="middle" pointer-events="none" font-family="sans-serif" dy="1.5625" font-size="25" fill="#604A0E"/><text text-anchor="middle" pointer-events="none" y="5" font-size="10px" fill="#604A0E" font-family="sans-serif"> ICAM1</text></g><g class="node" transform="translate(-118.59606908033561,144.50133526190308)"><circle class="outline" cx="0" cy="0" r="25" fill="#F16667" stroke="#eb2728" stroke-width="2px"/><text text-anchor="middle" pointer-events="none" font-family="sans-serif" dy="1.5625" font-size="25" fill="#FFFFFF"/><text text-anchor="middle" pointer-events="none" font-family="sans-serif" dy="1.5625" font-size="25" fill="#FFFFFF"/><text text-anchor="middle" pointer-events="none" y="0" font-size="10px" fill="#FFFFFF" font-family="sans-serif"> Diabetic</text><text text-anchor="middle" pointer-events="none" y="10" font-size="10px" fill="#FFFFFF" font-family="sans-serif"> Retino…</text></g><g class="node" transform="translate(-136.6966837479399,26.209893562203955)"><circle class="outline" cx="0" cy="0" r="25" fill="#F16667" stroke="#eb2728" stroke-width="2px"/><text text-anchor="middle" pointer-events="none" font-family="sans-serif" dy="1.5625" font-size="25" fill="#FFFFFF"/><text text-anchor="middle" pointer-events="none" y="5" font-size="10px" fill="#FFFFFF" font-family="sans-serif"> Malaria</text></g><g class="node" transform="translate(-90.94301144261495,-11.926310706252186)"><circle class="outline" cx="0" cy="0" r="25" fill="#F16667" stroke="#eb2728" stroke-width="2px"/><text text-anchor="middle" pointer-events="none" font-family="sans-serif" dy="1.5625" font-size="25" fill="#FFFFFF"/><text text-anchor="middle" pointer-events="none" y="5" font-size="10px" fill="#FFFFFF" font-family="sans-serif"> Colitis</text></g><g class="node" transform="translate(-81.4130061935095,47.891514747548)"><circle class="outline" cx="0" cy="0" r="25" fill="#D9C8AE" stroke="#c0a378" stroke-width="2px"/><text text-anchor="middle" pointer-events="none" font-family="sans-serif" dy="1.5625" font-size="25" fill="#604A0E"/><text text-anchor="middle" pointer-events="none" y="5" font-size="10px" fill="#604A0E" font-family="sans-serif"> NOS2</text></g><g class="node" transform="translate(85.56588556009022,111.58891190712595)"><circle class="outline" cx="0" cy="0" r="25" fill="#F16667" stroke="#eb2728" stroke-width="2px"/><text text-anchor="middle" pointer-events="none" font-family="sans-serif" dy="1.5625" font-size="25" fill="#FFFFFF"/><text text-anchor="middle" pointer-events="none" y="5" font-size="10px" fill="#FFFFFF" font-family="sans-serif"> Malign…</text></g><g class="node" transform="translate(-16.74453810558484,127.10166076148364)"><circle class="outline" cx="0" cy="0" r="25" fill="#D9C8AE" stroke="#c0a378" stroke-width="2px"/><text text-anchor="middle" pointer-events="none" font-family="sans-serif" dy="1.5625" font-size="25" fill="#604A0E"/><text text-anchor="middle" pointer-events="none" y="5" font-size="10px" fill="#604A0E" font-family="sans-serif"> IL4</text></g><g class="node" transform="translate(141.54769251542066,133.30513763897216)"><circle class="outline" cx="0" cy="0" r="25" fill="#F16667" stroke="#eb2728" stroke-width="2px"/><text text-anchor="middle" pointer-events="none" font-family="sans-serif" dy="1.5625" font-size="25" fill="#FFFFFF"/><text text-anchor="middle" pointer-events="none" y="5" font-size="10px" fill="#FFFFFF" font-family="sans-serif"> Rhinitis</text></g><g class="node" transform="translate(10.983316129561482,-28.011088724963045)"><circle class="outline" cx="0" cy="0" r="25" fill="#F16667" stroke="#eb2728" stroke-width="2px"/><text text-anchor="middle" pointer-events="none" font-family="sans-serif" dy="1.5625" font-size="25" fill="#FFFFFF"/><text text-anchor="middle" pointer-events="none" y="5" font-size="10px" fill="#FFFFFF" font-family="sans-serif"> Dermat…</text></g><g class="node" transform="translate(67.01777799562421,-6.144720530437279)"><circle class="outline" cx="0" cy="0" r="25" fill="#D9C8AE" stroke="#c0a378" stroke-width="2px"/><text text-anchor="middle" pointer-events="none" font-family="sans-serif" dy="1.5625" font-size="25" fill="#604A0E"/><text text-anchor="middle" pointer-events="none" y="5" font-size="10px" fill="#604A0E" font-family="sans-serif"> IL13</text></g><g class="node" transform="translate(20.22804858970339,31.47844040892933)"><circle class="outline" cx="0" cy="0" r="25" fill="#D9C8AE" stroke="#c0a378" stroke-width="2px"/><text text-anchor="middle" pointer-events="none" font-family="sans-serif" dy="1.5625" font-size="25" fill="#604A0E"/><text text-anchor="middle" pointer-events="none" y="5" font-size="10px" fill="#604A0E" font-family="sans-serif"> MMP9</text></g><g class="node" transform="translate(183.17120038799504,34.89469608601866)"><circle class="outline" cx="0" cy="0" r="25" fill="#F16667" stroke="#eb2728" stroke-width="2px"/><text text-anchor="middle" pointer-events="none" font-family="sans-serif" dy="1.5625" font-size="25" fill="#FFFFFF"/><text text-anchor="middle" pointer-events="none" font-family="sans-serif" dy="1.5625" font-size="25" fill="#FFFFFF"/><text text-anchor="middle" pointer-events="none" y="0" font-size="10px" fill="#FFFFFF" font-family="sans-serif"> Aortic</text><text text-anchor="middle" pointer-events="none" y="10" font-size="10px" fill="#FFFFFF" font-family="sans-serif"> Aneury…</text></g><g class="node" transform="translate(23.824115892008464,-142.60061222727967)"><circle class="outline" cx="0" cy="0" r="25" fill="#F16667" stroke="#eb2728" stroke-width="2px"/><text text-anchor="middle" pointer-events="none" font-family="sans-serif" dy="1.5625" font-size="25" fill="#FFFFFF"/><text text-anchor="middle" pointer-events="none" font-family="sans-serif" dy="1.5625" font-size="25" fill="#FFFFFF"/><text text-anchor="middle" pointer-events="none" y="0" font-size="10px" fill="#FFFFFF" font-family="sans-serif"> Gastric</text><text text-anchor="middle" pointer-events="none" y="10" font-size="10px" fill="#FFFFFF" font-family="sans-serif"> ulcer</text></g><g class="node" transform="translate(122.72381502471258,15.207241041583922)"><circle class="outline" cx="0" cy="0" r="25" fill="#F16667" stroke="#eb2728" stroke-width="2px"/><text text-anchor="middle" pointer-events="none" font-family="sans-serif" dy="1.5625" font-size="25" fill="#FFFFFF"/><text text-anchor="middle" pointer-events="none" font-family="sans-serif" dy="1.5625" font-size="25" fill="#FFFFFF"/><text text-anchor="middle" pointer-events="none" y="0" font-size="10px" fill="#FFFFFF" font-family="sans-serif"> Aortic</text><text text-anchor="middle" pointer-events="none" y="10" font-size="10px" fill="#FFFFFF" font-family="sans-serif"> Aneury…</text></g></g></svg>